<?xml version="1.0" encoding="UTF-8" standalone="no"?>
<!-- Created with Inkscape (http://www.inkscape.org/) -->

<svg
   width="210mm"
   height="297mm"
   viewBox="0 0 210 297"
   version="1.1"
   id="svg1"
   xml:space="preserve"
   inkscape:version="1.4.2 (ebf0e940d0, 2025-05-08)"
   sodipodi:docname="conch.svg"
   xmlns:inkscape="http://www.inkscape.org/namespaces/inkscape"
   xmlns:sodipodi="http://sodipodi.sourceforge.net/DTD/sodipodi-0.dtd"
   xmlns="http://www.w3.org/2000/svg"
   xmlns:svg="http://www.w3.org/2000/svg"><sodipodi:namedview
     id="namedview1"
     pagecolor="#505050"
     bordercolor="#eeeeee"
     borderopacity="1"
     inkscape:showpageshadow="0"
     inkscape:pageopacity="0"
     inkscape:pagecheckerboard="0"
     inkscape:deskcolor="#505050"
     inkscape:document-units="mm"
     showgrid="false"
     inkscape:zoom="4.0768952"
     inkscape:cx="491.55053"
     inkscape:cy="245.40734"
     inkscape:window-width="1920"
     inkscape:window-height="1012"
     inkscape:window-x="0"
     inkscape:window-y="32"
     inkscape:window-maximized="1"
     inkscape:current-layer="layer1" /><defs
     id="defs1" /><g
     inkscape:label="Layer 1"
     inkscape:groupmode="layer"
     id="layer1"
     sodipodi:insensitive="true"><path
       id="rect2"
       style="fill:#000000;fill-opacity:1;stroke-width:16.5"
       d="m 121.52592,50.006767 c -1.90257,0.0081 -4.56115,0.330475 -6.00946,0.789616 -1.60576,0.509055 -1.96568,0.540068 -2.97914,0.256315 -0.98193,-0.274924 -1.32789,-0.255798 -2.33733,0.129708 -1.34116,0.512193 -2.21147,1.557668 -2.43292,2.922302 -0.13936,0.858786 -0.22163,0.928625 -1.08934,0.928625 -0.64784,0 -1.3741,0.30016 -2.34663,0.969967 l -1.40818,0.969967 v 2.072741 c 0,1.819533 0.0584,2.072742 0.47645,2.072742 0.71957,0 1.11105,0.536288 1.11105,1.521354 0,1.091494 0.59029,2.302899 1.6831,3.454053 0.76454,0.805395 0.82349,0.995501 0.74259,2.401404 -0.0766,1.330919 0.001,1.632484 0.6041,2.34921 0.3805,0.452192 1.13441,0.966219 1.67535,1.142566 0.54094,0.176348 1.62094,0.949928 2.40037,1.719275 2.12203,2.094556 5.71981,3.779828 8.90178,4.169255 4.59908,0.56286 8.05652,-0.623683 13.75833,-4.720642 6.26927,-4.504705 10.32043,-5.906288 20.6375,-7.141167 4.1745,-0.499658 4.36563,-0.554654 4.36563,-1.247469 0,-0.515491 -0.10486,-0.539666 -1.68931,-0.391707 l -1.6893,0.157613 -0.15089,-0.753959 c -0.23147,-1.157338 -1.40971,-1.821839 -3.78375,-2.13372 -8.08075,-1.061576 -11.19225,-2.192865 -17.68988,-6.430098 -5.00436,-3.263437 -5.82992,-3.663286 -7.41195,-3.590996 -1.11557,0.05097 -1.44659,-0.05088 -2.08256,-0.640271 -0.41592,-0.385463 -1.17118,-0.778261 -1.67793,-0.873331 -0.39329,-0.07378 -0.9435,-0.106053 -1.57768,-0.103353 z m -0.41962,1.057816 c 1.18371,0 2.98328,0.414575 2.98328,0.687297 0,0.05853 -0.4654,0.571861 -1.03404,1.140499 -2.62994,2.629946 -1.79875,8.161867 1.7079,11.366748 2.2681,2.072917 3.71373,2.518844 8.18968,2.525944 3.38123,0.0054 3.99253,-0.07146 7.01146,-0.882634 3.05871,-0.821865 3.65531,-0.894896 7.9375,-0.969966 l 4.63021,-0.08113 -3.43958,0.491959 c -6.69586,0.957295 -11.2636,2.093624 -11.78119,2.931088 -0.10895,0.176297 -0.32038,0.244755 -0.46974,0.152445 -0.14936,-0.09231 -0.33208,-0.01796 -0.40618,0.164848 -0.10195,0.251459 -0.20314,0.235661 -0.41548,-0.0646 -0.24113,-0.340963 -0.28174,-0.330235 -0.28474,0.07751 -0.002,0.26104 -0.15296,0.455635 -0.33486,0.432015 -0.69822,-0.09067 -0.9369,0.03954 -1.12706,0.614949 l -0.19689,0.595313 -0.1173,-0.595313 c -0.0644,-0.327422 -0.24054,-0.595312 -0.39171,-0.595312 -0.16446,0 -0.20705,0.29232 -0.10594,0.727604 0.11229,0.483326 0.0875,0.60498 -0.0739,0.362769 -0.13368,-0.200498 -0.36651,-0.28801 -0.51728,-0.19482 -0.15078,0.09319 -0.32894,-0.0407 -0.39584,-0.29714 -0.0669,-0.256443 -0.14622,-0.0494 -0.17622,0.45992 l -0.0543,0.926042 -0.28887,-0.926042 -0.28887,-0.926041 -0.1819,0.926041 c -0.0878,0.447502 -0.13326,0.672631 -0.16123,0.691431 -1.1e-4,6.1e-5 -7e-4,4.15e-4 -10e-4,5.17e-4 h -5.2e-4 l -5.2e-4,5.17e-4 h -5.1e-4 -5.2e-4 c -2.1e-4,-4e-6 -0.001,2.8e-5 -0.002,0 h -5.2e-4 l -5.1e-4,-5.17e-4 h -5.2e-4 l -5.2e-4,-5.17e-4 c -0.0225,-0.01787 -0.0333,-0.203884 -0.0486,-0.545703 -0.0392,-0.878048 -0.46502,-0.648574 -0.60772,0.327628 -0.12967,0.887129 -0.58878,0.841214 -0.76378,-0.07648 l -0.15141,-0.79375 -0.2036,0.861963 c -0.25671,1.087681 -0.64345,0.904406 -0.47749,-0.226343 0.18856,-1.284753 -0.39293,-0.710404 -0.63046,0.622701 l -0.19998,1.122929 -0.21084,-0.926041 c -0.1159,-0.509323 -0.15932,-1.07487 -0.0961,-1.256771 0.0632,-0.181901 0.0107,-0.330729 -0.11679,-0.330729 -0.1275,0 -0.38454,0.595312 -0.57102,1.322916 -0.18648,0.727605 -0.43544,1.322917 -0.55346,1.322917 -0.11801,0 -0.22384,-0.625079 -0.23564,-1.389063 l -0.0217,-1.389062 -0.54053,1.256771 c -0.84898,1.972996 -1.17544,1.590804 -0.56483,-0.661459 0.24011,-0.88566 -0.36176,-0.45623 -0.83664,0.596863 -0.82202,1.82292 -1.151,1.845807 -1.2423,0.08578 l -0.0801,-1.542541 -0.52917,1.455208 -0.52916,1.455208 -0.13229,-1.556494 -0.1323,-1.555977 -0.66145,1.332735 c -0.3637,0.732996 -0.75328,1.275341 -0.8661,1.205611 -0.1129,-0.06973 -0.12766,-0.713083 -0.0326,-1.429887 0.11856,-0.893727 0.0792,-1.303279 -0.12557,-1.303279 -0.16427,0 -0.30192,0.0893 -0.30592,0.198437 -0.004,0.109141 -0.37007,0.615157 -0.81339,1.124479 l -0.80564,0.926042 0.15917,-1.455208 0.15968,-1.455209 -0.6842,1.124479 c -0.37628,0.618465 -0.79651,1.12448 -0.93379,1.12448 -0.33584,0 -0.31679,-0.96775 0.032,-1.61954 0.48913,-0.913953 0.10211,-1.177168 -0.42323,-0.287837 -0.66338,1.12296 -0.93742,1.077339 -0.61185,-0.101803 0.29943,-1.084442 0.15348,-1.391464 -0.43098,-0.906405 -0.52011,0.431633 -0.5189,0.02341 0.002,-0.720369 0.68437,-0.977069 1.44694,-4.514308 1.44694,-6.712252 0,-2.712505 -0.38671,-4.404161 -1.35495,-5.930904 -0.43606,-0.687605 -0.73463,-1.402166 -0.66353,-1.5875 0.16797,-0.4377 4.47928,-1.447974 6.17895,-1.447974 z m -9.4511,1.081071 c 0.22718,0.0074 0.47976,0.108728 0.89762,0.307992 2.0746,0.98931 3.23507,4.253837 2.98638,8.400521 -0.0964,1.607735 -0.35004,3.024476 -0.70435,3.931026 -0.30467,0.779518 -0.85987,1.851081 -1.23352,2.38125 -0.61735,0.875877 -0.66461,0.899761 -0.52038,0.260966 0.0873,-0.386663 0.237,-0.922444 0.3328,-1.190625 0.12502,-0.349879 -0.0731,-0.263633 -0.70125,0.305924 -0.62815,0.569557 -0.82627,0.655804 -0.70125,0.305925 0.0958,-0.268181 0.2428,-0.803962 0.3266,-1.190625 0.14615,-0.674658 0.12927,-0.668104 -0.42375,0.157096 -0.31696,0.472943 -0.63383,0.859896 -0.70383,0.859896 -0.0701,0 -0.053,-0.386953 0.0382,-0.859896 0.16026,-0.831256 0.15147,-0.842271 -0.27492,-0.330729 -0.4236,0.50819 -0.43511,0.488021 -0.28681,-0.506429 0.11744,-0.787444 0.0807,-0.96174 -0.15348,-0.727604 -0.56179,0.561787 -0.67303,0.319879 -0.3147,-0.684196 0.61204,-1.715004 0.47582,-5.083698 -0.28733,-7.111194 -0.65099,-1.729531 -0.65499,-1.784159 -0.19843,-2.714046 0.2563,-0.521993 0.78526,-1.125429 1.17564,-1.341004 0.31745,-0.175308 0.51954,-0.261649 0.74672,-0.254248 z m 14.68489,0.577226 c 0.51689,-0.0214 1.08881,0.04274 1.71411,0.192753 1.23304,0.295802 2.22416,0.836261 7.28017,3.9703 5.10295,3.163127 9.03435,4.527879 16.00006,5.553667 1.7702,0.260683 2.91765,0.787184 2.91765,1.338419 0,0.107682 -0.45609,0.238822 -1.01337,0.291972 -0.73328,0.06993 -1.11707,-0.03194 -1.38906,-0.369486 -0.26328,-0.326725 -1.28697,-0.620397 -3.4184,-0.980302 -3.21605,-0.543046 -10.69146,-2.744454 -11.39775,-3.356385 -0.22974,-0.199046 -0.67204,-0.361735 -0.98289,-0.361735 -0.31084,0 -0.69939,-0.250924 -0.86351,-0.557588 -0.21822,-0.407753 -0.37744,-0.478846 -0.5917,-0.264584 -0.43285,0.432844 -0.71623,0.356674 -0.71623,-0.192236 0,-0.740459 -0.3032,-0.88512 -0.83871,-0.400492 -0.45779,0.414285 -0.48421,0.400933 -0.48421,-0.248047 0,-0.738026 -0.387,-1.162339 -0.65887,-0.722437 -0.28241,0.456939 -0.66405,0.297174 -0.66405,-0.278019 0,-0.432773 -0.11442,-0.511162 -0.54777,-0.373621 -0.41471,0.131624 -0.58299,0.03982 -0.69246,-0.378788 -0.15495,-0.59253 -0.4786,-0.718011 -0.74414,-0.288354 -0.3227,0.522131 -0.71793,0.261124 -0.55966,-0.369487 0.18643,-0.74279 -0.1841,-0.95343 -1.67535,-0.95343 -2.03311,0 -3.18895,1.685172 -3.18895,4.649329 0,1.337648 0.15506,2.064874 0.65061,3.051493 0.65946,1.312882 0.64144,1.675811 -0.0408,0.83199 -1.5766,-1.949906 -2.07463,-4.865054 -1.24643,-7.295678 0.54228,-1.591499 1.60108,-2.425046 3.15174,-2.489254 z m -18.56579,3.416846 c 0.0508,-0.0022 0.10038,-0.0021 0.14883,0 0.35237,0.01553 0.63637,0.146485 0.77308,0.414961 0.52992,1.040685 0.86088,3.1242 0.6997,4.405933 -0.10916,0.868061 -0.40653,1.631603 -0.83406,2.142505 l -0.66404,0.79375 0.17208,-0.761194 c 0.1396,-0.618406 0.0947,-0.73152 -0.23875,-0.603581 -0.29193,0.112021 -0.41608,-0.0118 -0.43098,-0.429431 -0.0115,-0.322859 -0.0811,-0.438216 -0.15451,-0.256315 -0.24747,0.613301 -0.58465,0.336489 -0.45579,-0.374137 0.11098,-0.611988 0.0738,-0.659758 -0.28215,-0.364319 -0.34249,0.284234 -0.40979,0.266827 -0.40979,-0.104903 0,-0.244686 -0.11907,-0.37106 -0.26459,-0.28112 -0.14552,0.08994 -0.26458,-0.07483 -0.26458,-0.365869 0,-0.291041 -0.11905,-0.602524 -0.26458,-0.692464 -0.40253,-0.248778 -0.31593,-1.528805 0.14831,-2.191598 0.55327,-0.789915 1.55947,-1.299743 2.32182,-1.332218 z"
       sodipodi:insensitive="true" /></g></svg>
