<?xml version="1.0" encoding="UTF-8" standalone="no"?>
<!-- Created with Inkscape (http://www.inkscape.org/) -->

<svg
   width="210mm"
   height="297mm"
   viewBox="0 0 210 297"
   version="1.1"
   id="svg1"
   xml:space="preserve"
   inkscape:version="1.4.2 (ebf0e940d0, 2025-05-08)"
   sodipodi:docname="drawing.svg"
   xmlns:inkscape="http://www.inkscape.org/namespaces/inkscape"
   xmlns:sodipodi="http://sodipodi.sourceforge.net/DTD/sodipodi-0.dtd"
   xmlns="http://www.w3.org/2000/svg"
   xmlns:svg="http://www.w3.org/2000/svg"><sodipodi:namedview
     id="namedview1"
     pagecolor="#505050"
     bordercolor="#eeeeee"
     borderopacity="1"
     inkscape:showpageshadow="0"
     inkscape:pageopacity="0"
     inkscape:pagecheckerboard="0"
     inkscape:deskcolor="#505050"
     inkscape:document-units="mm"
     showgrid="false"
     inkscape:zoom="5.7656004"
     inkscape:cx="279.41582"
     inkscape:cy="561.52001"
     inkscape:window-width="1920"
     inkscape:window-height="1012"
     inkscape:window-x="0"
     inkscape:window-y="32"
     inkscape:window-maximized="1"
     inkscape:current-layer="layer1" /><defs
     id="defs1" /><g
     inkscape:label="Layer 1"
     inkscape:groupmode="layer"
     id="layer1"><path
       id="rect4"
       style="fill:#000000;fill-opacity:1;stroke-width:16.5;stroke-dasharray:none"
       d="M 72.760417 135.17418 L 72.760417 135.66717 L 71.900521 136.01495 C 70.586846 136.54631 69.328151 137.4125 69.324451 137.78746 C 69.32265 137.97248 69.61849 138.25938 69.982292 138.42514 C 70.694879 138.74981 70.867018 139.17083 70.287183 139.17083 C 69.669833 139.17083 67.065774 142.15015 66.35564 143.66875 C 64.347984 147.96207 65.840952 153.32187 69.816927 156.09383 L 70.709896 156.71653 L 69.999345 157.0886 C 68.986032 157.61953 69.237511 158.1846 70.85614 159.012 L 72.259155 159.72927 L 71.583744 160.17162 C 70.751872 160.71669 70.731618 161.14173 71.503646 161.84904 C 72.313665 162.59115 74.950428 164.04167 75.489449 164.04167 C 76.048216 164.04167 79.044602 162.59575 79.682992 162.01802 C 80.317823 161.4435 80.303458 160.42596 79.654569 160.02072 C 79.181698 159.72541 79.250989 159.64285 80.514465 158.99701 C 82.060853 158.20655 82.372221 157.57562 81.428105 157.14545 C 80.807616 156.86273 80.827803 156.82802 82.691077 154.96005 C 85.052213 152.59297 85.734885 151.0038 85.767375 147.79873 C 85.797385 144.83871 85.109741 143.10341 83.023356 140.87306 C 82.147652 139.93693 81.266415 139.17083 81.064819 139.17083 C 80.476352 139.17083 80.641539 138.75221 81.359375 138.42514 C 81.723177 138.25938 82.019533 137.97248 82.017733 137.78746 C 82.014082 137.4125 80.754822 136.54631 79.441146 136.01495 L 78.58125 135.66717 L 78.58125 135.17418 L 72.760417 135.17418 z " /></g></svg>
