<?xml version="1.0" encoding="UTF-8" standalone="no"?>
<!-- Created with Inkscape (http://www.inkscape.org/) -->

<svg
   width="210mm"
   height="297mm"
   viewBox="0 0 210 297"
   version="1.1"
   id="svg1"
   xml:space="preserve"
   inkscape:version="1.4.2 (ebf0e940d0, 2025-05-08)"
   sodipodi:docname="kra.svg"
   xmlns:inkscape="http://www.inkscape.org/namespaces/inkscape"
   xmlns:sodipodi="http://sodipodi.sourceforge.net/DTD/sodipodi-0.dtd"
   xmlns="http://www.w3.org/2000/svg"
   xmlns:svg="http://www.w3.org/2000/svg"><sodipodi:namedview
     id="namedview1"
     pagecolor="#505050"
     bordercolor="#eeeeee"
     borderopacity="1"
     inkscape:showpageshadow="0"
     inkscape:pageopacity="0"
     inkscape:pagecheckerboard="0"
     inkscape:deskcolor="#505050"
     inkscape:document-units="mm"
     inkscape:zoom="0.50961189"
     inkscape:cx="284.53025"
     inkscape:cy="652.4573"
     inkscape:window-width="1920"
     inkscape:window-height="1012"
     inkscape:window-x="0"
     inkscape:window-y="32"
     inkscape:window-maximized="1"
     inkscape:current-layer="layer1-6"
     showgrid="false"
     showguides="false" /><defs
     id="defs1" /><g
     inkscape:label="Layer 1"
     id="layer1-6"
     transform="matrix(0.26458333,0,0,0.26458333,241.55583,30.320912)"
     style="display:inline"
     sodipodi:insensitive="true"><g
       id="g7"
       sodipodi:insensitive="true"><path
         id="text3"
         style="font-size:762.44px;font-family:'Noto Sans Devanagari';-inkscape-font-specification:'Noto Sans Devanagari';display:inline;fill:none;fill-opacity:1;stroke:#000000;stroke-width:7.55906;stroke-dasharray:none;stroke-opacity:1"
         d="m 632.68517,-96.0742 c -14.62749,-0.736099 -29.45822,0.112013 -44.23242,2.669922 C 483.93751,-75.30918 410.28347,18.862042 409.49376,122.5469 h -0.01 v 0.19531 c -0.001,0.19128 -0.0266,0.37896 -0.0273,0.57031 h 0.0273 v 169.58789 h -58 v 54.13282 h 57.94531 v 183.74805 c -27.44784,-3.04976 -56.42037,-8.13194 -86.91797,-15.24805 -30.4976,-7.11611 -56.92806,-14.99573 -79.29297,-23.63672 17.79027,-13.72392 32.27653,-29.22584 43.45898,-46.50781 11.69075,-17.79027 17.53711,-37.61409 17.53711,-59.47071 0,-29.9893 -10.92854,-54.13308 -32.78515,-72.43164 -21.85662,-18.80685 -49.56007,-28.21094 -83.10743,-28.21094 -37.10541,0 -66.58479,9.65751 -88.441403,28.97266 -21.34832,19.31515 -32.023438,42.44327 -32.023438,69.38281 0,19.82344 5.08218,38.88504 15.248047,57.1836 10.67416,18.29856 29.482324,37.10478 56.421874,56.41992 -18.80685,10.67416 -38.12187,21.60271 -57.945312,32.78516 -19.315146,10.67416 -39.392396,21.0939 -60.232422,31.25976 l 36.595703,51.84571 c 23.889787,-13.72392 47.271331,-27.70138 70.144531,-41.9336 23.38149,-14.7405 46.00081,-29.22677 67.85742,-43.45898 19.31515,8.13269 40.91686,15.75694 64.80665,22.87305 23.88978,7.1161 50.57562,13.72274 80.05664,19.82226 L 148.6754,685.55667 185.27306,736.64065 409.42931,588.72659 V 767.1387 h 61.75781 V 347.03323 h 11.82813 v 0.20703 h 68.19922 v 422.22852 h 0.0723 v 53.71289 h -0.0371 v 5.25781 l -9.16992,3.70899 c -14.01148,5.66741 -27.43708,14.90696 -27.47656,18.90625 -0.0195,1.97335 3.13537,5.03289 7.01562,6.80078 7.60037,3.46294 9.43637,7.95313 3.25196,7.95313 -6.58461,0 -34.35942,31.77746 -41.9336,47.97461 -21.4133,45.79191 -5.4892,102.95816 36.91797,132.52346 l 9.52539,6.6426 -7.58008,3.9667 c -10.80788,5.6626 -8.1254,11.6908 9.13868,20.5157 l 14.96484,7.6504 -7.20313,4.7187 c -8.87255,5.8131 -9.08976,10.3461 -0.85546,17.8906 8.63951,7.9149 36.76265,23.3868 42.51172,23.3868 5.9598,0 37.91956,-15.4215 44.72851,-21.584 6.77104,-6.1275 6.61817,-16.9812 -0.30273,-21.3028 -5.04366,-3.1498 -4.30413,-4.0315 9.17187,-10.9199 16.4936,-8.431 19.81393,-15.1599 9.74414,-19.748 -6.61807,-3.0164 -6.40273,-3.3844 13.47071,-23.3086 25.18341,-25.247 32.46398,-42.19812 32.81054,-76.38284 0.32,-31.57121 -7.01451,-50.07857 -29.26758,-73.86718 -9.34009,-9.98458 -18.73845,-18.15625 -20.88867,-18.15625 -6.27651,0 -4.51374,-4.46464 3.14258,-7.95313 3.88033,-1.76789 7.04069,-4.82743 7.02149,-6.80078 -0.0399,-3.99929 -13.47094,-13.23884 -27.48243,-18.90625 l -9.17187,-3.70899 v -2.60937 h 0.0234 v -58.87305 h -0.0703 v -419.7168 h 78.92579 v -54.40625 h -209.1973 v 0.0664 H 471.55431 V 123.56643 l 0.26367,0.002 c 0.30748,-74.45025 53.96921,-142.834309 127.27149,-155.525391 72.00983,-12.467319 146.56118,34.7492916 158.1875,107.330079 9.56013,59.681992 -29.97316,121.369722 -89.9961,129.937502 -47.35128,6.759 -96.22071,-25.05302 -101.80859,-72.41797 -4.13,-35.007337 19.88582,-71.129195 54.4082,-73.892579 22.60844,-1.809717 46.09404,14.22911 46.40625,35.519532 L 728.64025,93.60549 C 727.73853,32.1168 670.34331,-7.5997979 614.90392,-3.162089 541.99261,2.6741749 495.53407,72.351103 503.53868,140.20119 513.53144,224.90346 595.82783,278.50414 676.09337,267.0469 772.77468,253.24644 833.69731,158.179 818.85314,65.509787 811.23067,17.92422 786.28721,-21.923565 751.83947,-50.171855 718.62202,-77.411278 676.56763,-93.8659 632.68517,-96.0742 Z m -446.6504,431.67188 c 17.28198,0 31.00601,4.06457 41.17188,12.19727 10.16587,8.13269 15.25,20.84107 15.25,38.12304 0,15.7571 -4.82875,30.49679 -14.48633,44.22071 -9.14928,13.72392 -22.11108,26.17692 -38.88476,37.35937 -23.3815,-13.21562 -39.39222,-26.68428 -48.03321,-40.4082 -8.64098,-13.72392 -12.96289,-26.68573 -12.96289,-38.88477 0,-17.79026 5.84636,-31.00549 17.53711,-39.64648 12.19904,-8.64099 25.6677,-12.96094 40.4082,-12.96094 z"
         transform="translate(-894.03295,46.110238)"
         inkscape:label="shree"
         sodipodi:insensitive="true" /><path
         id="path5"
         style="fill:none;stroke:#000000;stroke-width:7.55906;stroke-dasharray:none"
         inkscape:label="chakra"
         d="m 662.98975,393.35051 c -2.18649,24.4503 9.27697,50.56052 -23.63671,52.96679 -282.38944,20.64522 -250.83054,257.03661 -89.46682,267.62892 17.56913,1.15329 35.42438,-10.42609 45.16603,-18.9668 9.25285,-9.35055 9.25728,-8.11605 0,0 -4.11038,4.15381 -6.39129,5.91084 -10.80075,9.30467 l 19.48747,39.01723 -18.01383,6.50993 -17.73929,-37.17358 c -62.24773,37.3502 -139.26959,8.36569 -134.24024,11.09175 38.41504,59.9746 138.86207,34.3017 177.57422,16.32619 17.39271,-10.7602 18.9394,-8.79428 0,0 -15.22843,9.42123 -37.48875,13.40198 -46.88281,31.1113 -31.09867,58.62622 -18.00986,23.36201 23.10936,18.89454 25.89981,-2.81394 69.37372,14.6519 76.12305,-5.11329 l -0.67968,30.63088 H 725.0581 V 581.87588 c 46.12331,-16.29059 107.17312,7.62233 103.52735,88.20511 -7.07611,71.51399 55.64743,134.07405 53.90233,111.90039 -4.9961,-63.48306 5.5081,-87.75246 6.3633,-129.8965 1.5981,-78.75251 -57.26367,-132.04426 -116.2695,-134.10739 -60.73433,-2.12357 -127.9293,16.82491 -165.46681,87.56247 -25.62837,48.29541 -92.50458,43.81304 -102.55386,0.34772 -12.01795,-51.98026 44.77777,-83.42404 135.59876,-98.67187 97.10445,-16.30273 84.69305,-75.7093 84.89843,-113.86522 h 193.0475 v -54.40626 l -796.75221,-8e-5 V 393.3505 H 295.5526 v 130.32422 c -7.3992,-4.77937 -13.1406,-6.9414 -18.3183,-6.9414 -7.687,0 -8.4156,-0.62038 -9.6504,-8.22852 -1.9619,-12.08971 -9.6715,-21.35102 -21.5528,-25.88867 -8.9436,-3.41525 -12.0098,-3.58411 -20.709,-1.14844 -8.9782,2.51387 -12.1673,2.23833 -26.3925,-2.27148 -12.831,-4.06766 -36.3838,-6.9239 -53.2383,-6.9961 -5.6179,-0.024 -10.4931,0.26249 -13.9785,0.91602 -4.4894,0.8423 -11.1799,4.32336 -14.8653,7.73828 -5.6344,5.22154 -8.5669,6.12349 -18.4511,5.67187 -14.0149,-0.64039 -21.3296,2.90091 -65.66605,31.8125 -57.56457,37.53878 -85.13103,47.56207 -156.72071,56.9668 -21.03212,2.7631 -31.4698,8.64913 -33.51953,18.90235 l -1.33594,6.67968 -14.96875,-1.39648 c -14.03657,-1.31081 -14.96484,-1.09614 -14.96484,3.4707 0,6.1379 1.69458,6.62418 38.67773,11.05078 91.40164,10.94004 127.28998,23.35728 182.83204,63.26563 50.51535,36.29607 81.14765,46.80886 121.89255,41.82227 28.1901,-3.44998 60.0636,-18.38131 78.8633,-36.93751 6.9055,-6.8158 16.4713,-13.66818 21.2637,-15.23046 4.7925,-1.56228 11.4732,-6.11702 14.8437,-10.12305 5.3527,-6.34963 6.0309,-9.02153 5.3535,-20.8125 -0.7179,-12.45529 -0.1967,-14.13815 6.5762,-21.27344 7.3729,-7.76589 12.1634,-15.84126 14.0293,-23.52148 v 224.37695 h 62.0723 V 393.3505 Z m 3.00783,247.36525 V 673.6591 L 639.6421,657.18841 Z M 149.3925,481.57511 c 15.0728,0.009 53.2237,8.9485 54.7109,12.82422 0.6297,1.64195 -2.0154,7.97283 -5.8789,14.06445 -8.578,13.5258 -12.0039,28.51227 -12.0039,52.54297 0,19.47216 6.755,50.8107 12.8183,59.4668 4.6227,6.59016 4.6334,10.20479 0.025,6.38086 -5.1776,-4.29731 -6.4712,-1.57617 -3.8183,8.03125 2.8846,10.44629 0.4567,10.85091 -5.4199,0.90234 -4.6544,-7.87879 -8.0826,-5.54809 -3.75,2.54883 3.0904,5.77434 3.2588,14.34766 0.2832,14.34766 -1.2161,0 -4.9372,-4.48182 -8.2715,-9.96094 l -6.0625,-9.96289 1.414,12.89258 1.4121,12.89258 -7.1386,-8.20508 c -3.927,-4.51225 -7.1701,-8.99402 -7.2051,-9.96094 -0.035,-0.96683 -1.2555,-1.75976 -2.7109,-1.75976 -1.8138,0 -2.1634,3.6291 -1.1133,11.54687 0.8418,6.35037 0.713,12.05028 -0.2871,12.66797 -0.9986,0.61781 -4.4524,-4.18779 -7.6739,-10.68164 l -5.8593,-11.80664 -1.1719,13.78515 -1.1719,13.78907 -4.6894,-12.89258 -4.6875,-12.89063 -0.709,13.66602 c -0.8092,15.5925 -3.724,15.38799 -11.0059,-0.76172 -4.2078,-9.32959 -9.5415,-13.13336 -7.414,-5.28711 5.4104,19.95341 2.5178,23.33869 -5.004,5.85938 l -4.789,-11.13282 -0.1895,12.30469 c -0.1049,6.7683 -1.0424,12.30664 -2.0879,12.30664 -1.0451,0 -3.2505,-5.27459 -4.9023,-11.7207 -1.6522,-6.44594 -3.9281,-11.71875 -5.0586,-11.71875 -1.1262,0 -1.5954,1.3182 -1.0352,2.92969 0.56,1.61148 0.1756,6.62253 -0.8515,11.13476 l -1.8672,8.20313 -1.7715,-9.94727 c -2.1044,-11.81033 -7.2561,-16.89959 -5.5859,-5.51758 1.4703,10.01753 -1.9568,11.64192 -4.2305,2.00586 l -1.8047,-7.63672 -1.3418,7.03125 c -1.5499,8.13009 -5.6167,8.53698 -6.7656,0.67774 -1.2642,-8.64847 -5.0368,-10.68126 -5.3848,-2.90235 -0.1356,3.02823 -0.2333,4.67619 -0.4297,4.83399 v 0.006 0.006 c -0.022,2.6e-4 -0.021,-3e-5 -0.021,0 v -0.006 -0.006 c -0.2479,-0.16651 -0.6517,-2.16042 -1.4297,-6.125 l -1.6114,-8.20313 -2.55855,8.20313 -2.56055,8.20508 -0.48047,-8.20508 c -0.2658,-4.51224 -0.96864,-6.34617 -1.56054,-4.07422 -0.5936,2.27182 -2.17202,3.45833 -3.50782,2.63281 -1.3358,-0.82565 -3.39773,-0.0516 -4.58203,1.72461 -1.4296,2.1458 -1.64919,1.06898 -0.65429,-3.21289 0.895,-3.85628 0.51764,-6.44531 -0.93946,-6.44531 -1.3396,0 -2.9,2.37272 -3.4707,5.27344 l -1.03906,5.27343 -1.74414,-5.27343 c -1.68498,-5.09771 -3.80087,-6.25251 -9.98633,-5.44922 -1.61162,0.20925 -2.943,-1.51347 -2.9668,-3.82617 -0.0266,-3.61227 -0.38566,-3.70821 -2.52148,-0.6875 -1.8812,2.66006 -2.77828,2.8 -3.68164,0.57226 -0.65671,-1.61918 -2.27458,-2.27684 -3.59766,-1.45898 -1.32325,0.81777 -3.19664,0.2103 -4.16211,-1.35157 -4.5850499,-7.41939 -45.05284,-17.48587 -104.37305,-25.96679 l -30.4707,-4.35938 41.01953,0.71875 c 37.9364,0.66515 43.22251,1.31272 70.32031,8.59375 26.74636,7.18642 32.16082,7.86751 62.11719,7.82031 39.65495,-0.0629 52.46185,-4.0145 72.55665,-22.3789 31.0667,-28.39291 38.4307,-77.40176 15.1309,-100.70117 -5.0375,-5.03766 -9.1602,-9.58499 -9.1602,-10.10352 0,-2.41502 15.9272,-6.08257 26.4141,-6.08594 z m 83.7461,9.57422 c 2.0122,-0.0655 3.8026,0.69893 6.6152,2.25195 3.4586,1.90987 8.1447,7.25621 10.416,11.88086 4.0449,8.238 4.0076,8.72257 -1.7598,24.04493 -6.7606,17.96221 -7.967,47.80628 -2.5449,63 3.1744,8.89534 2.1889,11.03766 -2.789,6.06054 -2.0739,-2.07428 -2.3982,-0.52886 -1.3575,6.44727 1.3133,8.81004 1.2103,8.98846 -2.5429,4.48633 -3.7769,-4.53192 -3.8545,-4.43459 -2.4356,2.92968 0.8084,4.18998 0.9617,7.61719 0.3399,7.61719 -0.62,0 -3.4284,-3.42721 -6.2364,-7.61719 -4.8988,-7.3107 -5.0488,-7.36954 -3.7539,-1.39257 0.7423,3.42549 2.0454,8.17298 2.8946,10.54882 1.1076,3.09963 -0.6478,2.33494 -6.2129,-2.71093 -5.5647,-5.0458 -7.3202,-5.8087 -6.2129,-2.70899 0.8494,2.37586 2.1741,7.12128 2.9472,10.54688 1.2776,5.65921 0.8594,5.44894 -4.6093,-2.31055 -3.311,-4.69701 -8.2283,-14.19168 -10.9278,-21.09766 -3.1384,-8.03129 -5.3865,-20.58273 -6.2402,-34.82617 -2.2035,-36.73643 8.0779,-65.65734 26.457,-74.42187 3.7022,-1.76532 5.9402,-2.66282 7.9532,-2.72852 z m -130.0997,5.11328 c 13.7389,0.56887 23.1188,7.95523 27.9239,22.05469 7.3371,21.53354 2.9243,47.35824 -11.043,64.63281 -6.0447,7.47564 -6.2041,4.26013 -0.3613,-7.37109 4.3899,-8.7406 5.7636,-15.18266 5.7636,-27.0332 0,-26.26027 -10.2408,-41.18946 -28.2539,-41.18946 -13.2111,0 -16.4938,1.86663 -14.8418,8.44727 1.4019,5.58669 -2.1,7.89918 -4.9589,3.27344 -2.3529,-3.80636 -5.2189,-2.69477 -6.5918,2.55468 -0.9695,3.70853 -2.4606,4.52157 -6.1348,3.35547 -3.8395,-1.21857 -4.8535,-0.52348 -4.8535,3.31055 0,5.09584 -3.3807,6.51107 -5.88283,2.46289 -2.4082,-3.89722 -5.83789,-0.13797 -5.83789,6.40039 0,5.74943 -0.23387,5.86753 -4.28907,2.19727 -4.7446,-4.29341 -7.43164,-3.01314 -7.43164,3.54687 0,4.8628 -2.51029,5.53777 -6.3457,1.70313 -1.89803,-1.89826 -3.30792,-1.26848 -5.24023,2.34375 -1.45408,2.7168 -4.89646,4.93945 -7.6504,4.93945 -2.75407,0 -6.6744,1.44154 -8.70898,3.20508 -6.25733,5.42109 -72.48348,24.92531 -100.97461,29.73633 -18.8825,3.18838 -27.95208,5.78904 -30.28516,8.68359 -2.409,2.99042 -5.81054,3.89301 -12.30664,3.27344 -4.93633,-0.47091 -8.97656,-1.63203 -8.97656,-2.58594 0,-4.88353 10.16479,-9.54803 25.84766,-11.85742 61.7109,-9.08769 96.53994,-21.1782 141.74805,-49.20118 44.7939,-27.76511 53.5758,-32.55325 64.5,-35.17382 5.5396,-1.3291 10.6057,-1.8985 15.1855,-1.70899 z m 163.1622,30.27149 c 0.4298,-0.0183 0.8687,-0.0183 1.3183,0 6.755,0.28774 15.669,4.80479 20.5703,11.80273 4.1134,5.87198 4.8804,17.21192 1.3145,19.41602 -1.2896,0.79671 -2.3457,3.55638 -2.3457,6.13476 0,2.5784 -1.055,4.03711 -2.3438,3.24024 -1.2893,-0.79691 -2.3437,0.32446 -2.3437,2.49218 0,3.29331 -0.597,3.44587 -3.6309,0.92774 -3.1536,-2.6174 -3.4834,-2.19336 -2.5,3.22851 1.1418,6.29549 -1.8444,8.7477 -4.0371,3.31446 -0.6508,-1.6115 -1.2701,-0.58887 -1.3691,2.27148 -0.132,3.69955 -1.2322,4.79515 -3.8184,3.80274 -2.9543,-1.1334 -3.3506,-0.13084 -2.1133,5.34765 l 1.5235,6.74414 -5.8828,-7.03125 c -3.7878,-4.52627 -6.422,-11.29207 -7.3887,-18.98242 -1.429,-11.35531 1.5042,-29.81345 6.1992,-39.0332 1.2102,-2.37844 3.7257,-3.53829 6.8477,-3.67578 z"
         sodipodi:nodetypes="csscccccccccsscccccsssssscccccccsscsssccscscccsscssscccccccccccccccsccsccscccccssccccccccscscccscsssccccccssccccccccccccsccscccsccssccccsccsscssccsccccscscscccccssccscsscccsscscsccscscssccscccccsssssccscccccc"
         sodipodi:insensitive="true" /><path
         d="m -1070.165,338.94425 v 54.40626 h -284.2951 c 2.1865,24.4503 -9.2769,50.56052 23.6368,52.96679 282.3897,20.64522 250.8306,257.03661 89.4669,267.62892 -17.5691,1.15329 -35.4244,-10.42609 -45.1661,-18.9668 -9.2528,-9.35055 -9.2572,-8.11605 0,0 4.1104,4.15381 6.3913,5.91084 10.8008,9.30467 l -19.4875,39.01723 18.0139,6.50993 17.7393,-37.17358 c 62.2476,37.3502 139.2694,8.36569 134.2401,11.09175 -38.4153,59.9746 -138.8619,34.3017 -177.5742,16.32619 -17.3927,-10.7602 -18.9394,-8.79428 0,0 15.2285,9.42123 37.4889,13.40198 46.8829,31.1113 31.0986,58.62622 18.0098,23.36201 -23.1094,18.89454 -25.8998,-2.81394 -69.3738,14.6519 -76.1231,-5.11329 l 0.6796,30.63088 h -62.0683 V 581.87588 c -46.1232,-16.29059 -107.173,7.62233 -103.5273,88.20511 7.0761,71.51399 -55.6475,134.07405 -53.9024,111.90039 4.9962,-63.48306 -5.508,-87.75246 -6.3633,-129.8965 -1.5981,-78.75251 57.2638,-132.04426 116.2696,-134.10739 60.7343,-2.12357 127.9292,16.82491 165.4668,87.56247 25.6285,48.29541 92.5045,43.81304 102.5538,0.34772 12.0177,-51.98026 -44.7777,-83.42404 -135.5987,-98.67187 -97.1045,-16.30273 -84.6931,-75.7093 -84.8985,-113.86522 h -249.0467 v -54.40626 z m -287.3029,301.77151 v 32.94334 l 26.3555,-16.47069 z"
         style="fill:none;stroke:#000000;stroke-width:7.55906;stroke-dasharray:none"
         id="path6"
         sodipodi:nodetypes="cccsscccccccccsscccccsssssscccccccc"
         inkscape:label="haathi"
         sodipodi:insensitive="true" /></g></g></svg>
