<?xml version="1.0" encoding="UTF-8" standalone="no"?>
<!-- Created with Inkscape (http://www.inkscape.org/) -->

<svg
   width="780"
   height="780"
   viewBox="0 0 780.00002 780.00003"
   version="1.1"
   id="svg1"
   inkscape:version="1.4.2 (ebf0e940d0, 2025-05-08)"
   sodipodi:docname="shreechakra.svg"
   xml:space="preserve"
   inkscape:export-filename="/home/mohitsir/डाउनलोड/shreechakra1.pdf"
   inkscape:export-xdpi="96"
   inkscape:export-ydpi="96"
   xmlns:inkscape="http://www.inkscape.org/namespaces/inkscape"
   xmlns:sodipodi="http://sodipodi.sourceforge.net/DTD/sodipodi-0.dtd"
   xmlns:xlink="http://www.w3.org/1999/xlink"
   xmlns="http://www.w3.org/2000/svg"
   xmlns:svg="http://www.w3.org/2000/svg"><sodipodi:namedview
     id="namedview1"
     pagecolor="#505050"
     bordercolor="#eeeeee"
     borderopacity="1"
     inkscape:showpageshadow="0"
     inkscape:pageopacity="0"
     inkscape:pagecheckerboard="0"
     inkscape:deskcolor="#505050"
     inkscape:document-units="px"
     inkscape:zoom="1.0192238"
     inkscape:cx="398.34235"
     inkscape:cy="388.04039"
     inkscape:window-width="1920"
     inkscape:window-height="1012"
     inkscape:window-x="0"
     inkscape:window-y="32"
     inkscape:window-maximized="1"
     inkscape:current-layer="layer1"
     showgrid="false"><sodipodi:guide
       position="807.47725,388.52564"
       orientation="0,793.701"
       id="guide2"
       inkscape:locked="false" /></sodipodi:namedview><defs
     id="defs1"><inkscape:path-effect
       effect="copy_rotate"
       starting_point="1160.53,561.25971"
       origin="396.85,561.25971"
       id="path-effect6"
       is_visible="true"
       lpeversion="1.2"
       lpesatellites=""
       method="normal"
       num_copies="16"
       starting_angle="0"
       rotation_angle="22.5"
       gap="-0.01"
       copies_to_360="true"
       mirror_copies="false"
       split_items="false"
       link_styles="false" /><linearGradient
       id="linearGradient2"
       inkscape:collect="always"><stop
         style="stop-color:#ffffff;stop-opacity:1;"
         offset="0.34709296"
         id="stop3" /><stop
         style="stop-color:#be00c5;stop-opacity:1;"
         offset="1"
         id="stop4" /></linearGradient><linearGradient
       id="linearGradient1"
       inkscape:collect="always"><stop
         style="stop-color:#ffffff;stop-opacity:1;"
         offset="0"
         id="stop1" /><stop
         style="stop-color:#5e38cf;stop-opacity:1;"
         offset="0.94668752"
         id="stop2" /></linearGradient><linearGradient
       id="linearGradient12"
       inkscape:collect="always"><stop
         style="stop-color:#e5cb0e;stop-opacity:1;"
         offset="0"
         id="stop12" /><stop
         style="stop-color:#97002b;stop-opacity:1;"
         offset="1"
         id="stop13" /></linearGradient><inkscape:path-effect
       effect="copy_rotate"
       starting_point="496.85,561.25971"
       origin="396.85,561.25971"
       id="path-effect12"
       is_visible="true"
       lpeversion="1.2"
       lpesatellites=""
       method="normal"
       num_copies="16"
       starting_angle="0"
       rotation_angle="22.5"
       gap="-0.01"
       copies_to_360="true"
       mirror_copies="false"
       split_items="false"
       link_styles="false" /><inkscape:path-effect
       effect="mirror_symmetry"
       start_point="396.85037,398.34235"
       end_point="396.85037,561.25969"
       center_point="396.85037,479.80102"
       id="path-effect11"
       is_visible="true"
       lpeversion="1.2"
       lpesatellites=""
       mode="free"
       discard_orig_path="false"
       fuse_paths="true"
       oposite_fuse="false"
       split_items="false"
       split_open="false"
       link_styles="false" /><inkscape:path-effect
       effect="copy_rotate"
       starting_point="408.18858,561.25971"
       origin="396.85,561.25971"
       id="path-effect10"
       is_visible="true"
       lpeversion="1.2"
       lpesatellites=""
       method="normal"
       num_copies="16"
       starting_angle="0"
       rotation_angle="22.5"
       gap="-0.01"
       copies_to_360="true"
       mirror_copies="false"
       split_items="false"
       link_styles="false" /><inkscape:path-effect
       effect="copy_rotate"
       starting_point="496.85,561.25971"
       origin="396.85,561.25971"
       id="path-effect8"
       is_visible="true"
       lpeversion="1.2"
       lpesatellites=""
       method="normal"
       num_copies="16"
       starting_angle="0"
       rotation_angle="22.5"
       gap="-0.01"
       copies_to_360="true"
       mirror_copies="false"
       split_items="false"
       link_styles="false" /><inkscape:path-effect
       effect="copy_rotate"
       starting_point="489.82917,561.25971"
       origin="396.85,561.25971"
       id="path-effect5"
       is_visible="true"
       lpeversion="1.2"
       lpesatellites=""
       method="normal"
       num_copies="16"
       starting_angle="0"
       rotation_angle="22.5"
       gap="-0.01"
       copies_to_360="true"
       mirror_copies="false"
       split_items="false"
       link_styles="false" /><inkscape:path-effect
       effect="mirror_symmetry"
       start_point="396.85039,188.70541"
       end_point="396.85039,561.25984"
       center_point="396.85039,374.98263"
       id="path-effect4"
       is_visible="true"
       lpeversion="1.2"
       lpesatellites=""
       mode="free"
       discard_orig_path="false"
       fuse_paths="true"
       oposite_fuse="false"
       split_items="false"
       split_open="false"
       link_styles="false" /><inkscape:path-effect
       effect="copy_rotate"
       starting_point="1084.2381,561.25971"
       origin="396.8504,561.25986"
       id="path-effect3"
       is_visible="true"
       lpeversion="1.2"
       lpesatellites=""
       method="normal"
       num_copies="16"
       starting_angle="0"
       rotation_angle="22.5"
       gap="-0.01"
       copies_to_360="true"
       mirror_copies="false"
       split_items="false"
       link_styles="false" /><inkscape:path-effect
       effect="mirror_symmetry"
       start_point="396.85039,176.21755"
       end_point="396.85039,561.25984"
       center_point="396.85039,368.7387"
       id="path-effect2"
       is_visible="true"
       lpeversion="1.2"
       lpesatellites=""
       mode="free"
       discard_orig_path="false"
       fuse_paths="true"
       oposite_fuse="false"
       split_items="false"
       split_open="false"
       link_styles="false" /><radialGradient
       inkscape:collect="always"
       xlink:href="#linearGradient12"
       id="radialGradient13"
       cx="396.85001"
       cy="561.2597"
       fx="396.85001"
       fy="561.2597"
       r="162.91733"
       gradientUnits="userSpaceOnUse" /><radialGradient
       inkscape:collect="always"
       xlink:href="#linearGradient1"
       id="radialGradient2"
       cx="396.85059"
       cy="561.25958"
       fx="396.85059"
       fy="561.25958"
       r="331.8559"
       gradientTransform="matrix(1.0709566,0,0,1.0709552,-28.159164,-39.824309)"
       gradientUnits="userSpaceOnUse" /><radialGradient
       inkscape:collect="always"
       xlink:href="#linearGradient2"
       id="radialGradient4"
       cx="396.85059"
       cy="561.25977"
       fx="396.85059"
       fy="561.25977"
       r="385.04199"
       gradientTransform="matrix(1,0,0,1.0000025,0,-0.00142413)"
       gradientUnits="userSpaceOnUse" /></defs><g
     inkscape:label="Layer 1"
     inkscape:groupmode="layer"
     id="layer1"
     sodipodi:insensitive="true"
     transform="translate(-6.850387,-171.25983)"><g
       id="g3"
       transform="translate(-2.0999999e-4,5.1445397e-5)"
       sodipodi:insensitive="true"
       inkscape:label="chakra"><g
         id="g1"
         inkscape:label="outer"
         sodipodi:insensitive="true"><path
           id="path3"
           style="display:inline;fill:url(#radialGradient4);stroke:none;stroke-width:1.00157;stroke-opacity:1"
           d="m 396.84962,176.2168 c -23.35769,32.20486 -40.37769,70.9166 -54.12305,112.94727 -28.78351,-33.57117 -59.32064,-62.8219 -93.22461,-83.63672 -9.25542,38.69201 -10.16664,80.96916 -6.78125,125.06055 -39.43963,-20.00075 -78.84805,-35.33786 -118.13672,-41.59375 6.25581,39.28813 21.5934,78.69569 41.59375,118.13477 -44.09139,-3.38539 -86.368545,-2.47417 -125.060552,6.78125 20.814822,33.90397 50.065546,64.44305 83.636722,93.22656 -42.030663,13.74536 -80.74046,30.76536 -112.945316,54.12305 32.204858,23.35769 70.914651,40.37769 112.945316,54.12305 -33.571174,28.7835 -62.821899,59.32259 -83.636722,93.22656 38.692009,9.25542 80.969162,10.16664 125.060552,6.78125 -20.00075,39.43963 -35.33786,78.84609 -41.59375,118.13477 39.28867,-6.2559 78.69709,-21.593 118.13672,-41.59375 -3.38539,44.09139 -2.47417,86.36854 6.78125,125.06055 33.90397,-20.81482 64.4411,-50.06555 93.22461,-83.63672 13.74536,42.03066 30.76536,80.74241 54.12305,112.94727 23.35736,-32.20441 40.37975,-70.91534 54.125,-112.94532 28.78297,33.57027 59.32136,62.82039 93.22461,83.63477 9.25542,-38.69201 10.16664,-80.96916 6.78125,-125.06055 39.43963,20.00075 78.84805,35.33785 118.13672,41.59375 -6.2559,-39.28867 -21.59495,-78.69514 -41.5957,-118.13477 44.09139,3.38539 86.3705,2.47417 125.0625,-6.78125 -20.81482,-33.90397 -50.06554,-64.44306 -83.63672,-93.22656 42.03066,-13.74536 80.74046,-30.76537 112.94532,-54.12305 -32.59298,-23.63918 -72.8569,-39.78952 -115.47462,-53.6211 34.08047,-29.08777 65.10039,-59.416 86.16602,-93.72851 -38.69201,-9.25542 -80.97111,-10.16664 -125.0625,-6.78125 20.00034,-39.43908 35.33989,-78.84664 41.5957,-118.13477 -39.28867,6.2559 -78.69709,21.593 -118.13672,41.59375 3.38539,-44.09139 2.47417,-86.36854 -6.78125,-125.06055 -33.90325,20.81438 -64.44164,50.06449 -93.22461,83.63477 -13.74525,-42.02998 -30.76764,-80.74091 -54.125,-112.94532 z"
           sodipodi:insensitive="true" /><path
           id="path6"
           style="display:inline;fill:#97002b;fill-opacity:1;stroke:none;stroke-width:0.943822;stroke-opacity:1"
           d="m 396.84968,198.41744 c -22.01095,30.348 -38.04961,66.82772 -51.00245,106.435 -27.12392,-31.63553 -55.90036,-59.19974 -87.84951,-78.81443 -8.72177,36.46113 -9.58045,76.30068 -6.39026,117.84987 -37.16563,-18.84756 -74.30186,-33.30037 -111.32524,-39.19556 5.89511,37.02287 20.34837,74.15829 39.19555,111.32341 -41.54919,-3.1902 -81.388743,-2.33152 -117.849863,6.39026 19.61469,31.94915 47.178893,60.72742 78.814433,87.85134 -39.60728,12.95284 -76.085163,28.99151 -106.433165,51.00245 30.348004,22.01094 66.825885,38.04961 106.433165,51.00245 -31.63554,27.12391 -59.199742,55.90219 -78.814433,87.85134 36.461122,8.72178 76.300673,9.58046 117.849863,6.39026 -18.84755,37.16564 -33.30036,74.30002 -39.19555,111.32341 37.02338,-5.8952 74.15961,-20.348 111.32524,-39.19556 -3.19019,41.54919 -2.33151,81.38874 6.39026,117.84987 31.94915,-19.61469 60.72559,-47.1789 87.84951,-78.81443 12.95284,39.60727 28.9915,76.087 51.00245,106.435 22.01063,-30.34758 38.05155,-66.82653 51.00428,-106.43317 27.12342,31.63469 55.90104,59.19832 87.84951,78.8126 8.72177,-36.46113 9.58045,-76.30068 6.39026,-117.84987 37.16564,18.84756 74.30186,33.30036 111.32524,39.19556 -5.8952,-37.02338 -20.34983,-74.15777 -39.19739,-111.32341 41.54919,3.1902 81.39059,2.33152 117.8517,-6.39026 -19.61469,-31.94915 -47.17888,-60.72743 -78.81443,-87.85134 39.60728,-12.95284 76.08516,-28.99152 106.43317,-51.00245 -30.71375,-22.2762 -68.65615,-37.49535 -108.81664,-50.52944 32.11548,-27.41064 61.34686,-55.99022 81.1979,-88.32435 -36.46112,-8.72178 -76.30251,-9.58046 -117.8517,-6.39026 18.84717,-37.16512 33.30228,-74.30054 39.19739,-111.32341 -37.02338,5.8952 -74.1596,20.348 -111.32524,39.19556 3.19019,-41.54919 2.33151,-81.38874 -6.39026,-117.84987 -31.94847,19.61428 -60.72609,47.1779 -87.84951,78.8126 -12.95273,-39.60664 -28.99365,-76.08559 -51.00428,-106.43317 z m 0,28.76537 c 20.26564,27.94165 35.03483,61.52961 46.96067,97.99625 24.97309,-29.12672 51.46939,-54.50478 80.88501,-72.56405 8.03032,33.57052 8.81956,70.25039 5.88228,108.50559 34.21918,-17.35333 68.4118,-30.6591 102.5,-36.08693 -5.42776,34.08772 -18.7358,68.27762 -36.08878,102.49631 38.2552,-2.93729 74.93692,-2.14621 108.50742,5.88411 -18.27725,29.77071 -45.1904,56.08366 -74.75978,81.32121 36.97658,12.00075 71.90952,26.01432 100.1883,46.52448 -27.94203,20.26592 -61.52717,35.03289 -97.99441,46.95884 29.12751,24.97354 54.50625,51.4706 72.56589,80.88685 -33.57049,8.03032 -70.25222,8.8214 -108.50742,5.88411 17.35334,34.21917 30.66095,68.40812 36.08878,102.49631 -34.0882,-5.42783 -68.28082,-18.7336 -102.5,-36.08693 2.93728,38.2552 2.14804,74.93507 -5.88228,108.50558 -29.41562,-18.05927 -55.91192,-43.43733 -80.88501,-72.56404 -11.92584,36.46664 -26.69503,70.0546 -46.96067,97.99625 -20.26594,-27.94203 -35.0329,-61.53086 -46.95884,-97.9981 -24.97356,29.12749 -51.46877,54.50624 -80.88501,72.56589 -8.03032,-33.57051 -8.8214,-70.25038 -5.88412,-108.50558 -34.21918,17.35333 -68.4118,30.6591 -102.49999,36.08693 5.42781,-34.0882 18.73544,-68.27714 36.08877,-102.49631 -38.25519,2.93729 -74.93692,2.14621 -108.507421,-5.88411 18.059651,-29.41625 43.438391,-55.91331 72.565891,-80.88685 -36.46724,-11.92595 -70.052379,-26.69291 -97.994414,-46.95884 27.942033,-20.26593 61.527174,-35.03289 97.994414,-46.95884 -29.1275,-24.97355 -54.50624,-51.4706 -72.565891,-80.88685 33.570501,-8.03032 70.252231,-8.8214 108.507421,-5.88411 -17.35298,-34.21869 -30.66102,-68.40859 -36.08877,-102.49631 34.08819,5.42782 68.28081,18.7336 102.49999,36.08693 -2.93728,-38.2552 -2.1462,-74.93507 5.88412,-108.50559 29.41624,18.05965 55.91145,43.43841 80.88501,72.5659 11.92594,-36.46725 26.6929,-70.05607 46.95884,-97.9981 z"
           transform="translate(2.0999999e-4,-5.1445397e-5)"
           sodipodi:insensitive="true" /><path
           id="path8"
           style="display:inline;fill:#ffffff;stroke-width:7.55906"
           d="m 408.18896,261.96402 c 0,6.26213 -5.07646,11.33858 -11.33859,11.33858 -6.26212,0 -11.33858,-5.07646 -11.33858,-11.33858 0,-6.26212 5.07646,-11.33858 11.33858,-11.33858 6.26213,0 11.33859,5.07645 11.33859,11.33858 z m -115.39863,18.4433 c 2.39641,5.78545 -0.35095,12.41816 -6.1364,14.81457 -5.78545,2.39641 -12.41816,-0.35095 -14.81457,-6.1364 -2.39641,-5.78545 0.35095,-12.41815 6.13639,-14.81457 5.78545,-2.39641 12.41817,0.35094 14.81458,6.1364 z m -99.55649,61.20052 c 4.428,4.428 4.42799,11.60719 0,16.03518 -4.428,4.42799 -11.60719,4.42799 -16.03518,0 -4.42799,-4.42799 -4.42799,-11.60718 0,-16.03517 4.42799,-4.428 11.60719,-4.428 16.03518,-10e-6 z m -68.55777,94.64053 c 5.78545,2.39642 8.53281,9.02913 6.13639,14.81458 -2.39641,5.78545 -9.02912,8.53281 -14.81457,6.1364 -5.78544,-2.39641 -8.5328,-9.02912 -6.13639,-14.81457 2.39641,-5.78545 9.02912,-8.53282 14.81457,-6.13641 z M 97.55431,549.92075 c 6.26213,0 11.33858,5.07646 11.33858,11.33859 0,6.26212 -5.07646,11.33858 -11.33858,11.33858 -6.262124,0 -11.338578,-5.07646 -11.33858,-11.33858 -4e-6,-6.26213 5.076452,-11.33859 11.33858,-11.33859 z m 18.4433,115.39863 c 5.78545,-2.39641 12.41816,0.35095 14.81457,6.1364 2.39641,5.78545 -0.35095,12.41816 -6.1364,14.81457 -5.78545,2.39641 -12.41815,-0.35095 -14.81457,-6.13639 -2.39641,-5.78545 0.35094,-12.41817 6.1364,-14.81458 z m 61.20052,99.55649 c 4.428,-4.428 11.60719,-4.42799 16.03518,0 4.42799,4.428 4.42799,11.60719 0,16.03518 -4.42799,4.42799 -11.60718,4.42799 -16.03517,0 -4.428,-4.42799 -4.428,-11.60719 -1e-5,-16.03518 z m 94.64053,68.55777 c 2.39642,-5.78545 9.02913,-8.53281 14.81458,-6.13639 5.78545,2.39641 8.53281,9.02912 6.1364,14.81457 -2.39641,5.78544 -9.02912,8.5328 -14.81457,6.13639 -5.78545,-2.39641 -8.53282,-9.02912 -6.13641,-14.81457 z m 113.67238,27.12176 c 0,-6.26213 5.07646,-11.33858 11.33859,-11.33858 6.26212,0 11.33858,5.07646 11.33858,11.33858 0,6.26212 -5.07646,11.33858 -11.33858,11.33858 -6.26213,0 -11.33859,-5.07645 -11.33859,-11.33858 z m 115.39863,-18.4433 c -2.39641,-5.78545 0.35095,-12.41816 6.1364,-14.81457 5.78545,-2.39641 12.41816,0.35095 14.81457,6.1364 2.39641,5.78545 -0.35095,12.41815 -6.13639,14.81457 -5.78545,2.39641 -12.41817,-0.35094 -14.81458,-6.1364 z m 99.55649,-61.20052 c -4.428,-4.428 -4.42799,-11.60719 0,-16.03518 4.428,-4.42799 11.60719,-4.42799 16.03518,0 4.42799,4.42799 4.42799,11.60718 0,16.03517 -4.42799,4.428 -11.60719,4.428 -16.03518,10e-6 z m 68.55777,-94.64053 c -5.78545,-2.39642 -8.53281,-9.02913 -6.13639,-14.81458 2.39641,-5.78545 9.02912,-8.53281 14.81457,-6.1364 5.78544,2.39641 8.5328,9.02912 6.13639,14.81457 -2.39641,5.78545 -9.02912,8.53282 -14.81457,6.13641 z m 27.12176,-113.67238 c -6.26213,0 -11.33858,-5.07646 -11.33858,-11.33859 0,-6.26212 5.07646,-11.33858 11.33858,-11.33858 6.26212,0 11.33858,5.07646 11.33858,11.33858 0,6.26213 -5.07645,11.33859 -11.33858,11.33859 z m -18.4433,-115.39863 c -5.78545,2.39641 -12.41816,-0.35095 -14.81457,-6.1364 -2.39641,-5.78545 0.35095,-12.41816 6.1364,-14.81457 5.78545,-2.39641 12.41815,0.35095 14.81457,6.13639 2.39641,5.78545 -0.35094,12.41817 -6.1364,14.81458 z m -61.20052,-99.55649 c -4.428,4.428 -11.60719,4.42799 -16.03518,0 -4.42799,-4.428 -4.42799,-11.60719 0,-16.03518 4.42799,-4.42799 11.60718,-4.42799 16.03517,0 4.428,4.42799 4.428,11.60719 1e-5,16.03518 z m -94.64053,-68.55777 c -2.39642,5.78545 -9.02913,8.53281 -14.81458,6.13639 -5.78545,-2.39641 -8.53281,-9.02912 -6.1364,-14.81457 2.39641,-5.78544 9.02912,-8.5328 14.81457,-6.13639 5.78545,2.39641 8.53282,9.02912 6.13641,14.81457 z"
           transform="translate(2.0999999e-4,-5.1445397e-5)"
           inkscape:path-effect="#path-effect8"
           inkscape:original-d="m 408.18896,261.96402 a 11.338583,11.338583 0 0 1 -11.33859,11.33858 11.338583,11.338583 0 0 1 -11.33858,-11.33858 11.338583,11.338583 0 0 1 11.33858,-11.33858 11.338583,11.338583 0 0 1 11.33859,11.33858 z"
           sodipodi:insensitive="true" /></g><g
         id="g2"
         inkscape:label="inner"
         sodipodi:insensitive="true"><path
           id="path2"
           style="display:inline;fill:url(#radialGradient2);stroke:none;stroke-width:0.942582;stroke-opacity:1"
           d="m 467.54469,205.85678 c -27.47255,25.43723 -50.28996,58.04407 -70.69416,94.31558 -20.40403,-36.27164 -43.21993,-68.87739 -70.69235,-94.31476 -15.6469,34.0142 -24.2502,72.86961 -29.22071,114.18845 -32.73142,-25.70233 -66.29028,-47.09432 -101.40595,-60.08213 -1.43918,37.41235 5.4824,76.60238 16.70201,116.67761 -40.07571,-11.22009 -79.26573,-18.14123 -116.678574,-16.70224 12.987644,35.11574 34.379624,68.67448 60.081794,101.40603 -41.31888,4.97031 -80.173756,13.5729 -114.188058,29.21963 25.437226,27.47256 58.042266,50.2896 94.313768,70.6938 -36.271642,20.40402 -68.87774,43.22173 -94.315127,70.69415 34.01422,15.64691 72.869627,24.2502 114.188477,29.22071 -25.70234,32.73141 -47.09396,66.28848 -60.081796,101.40415 37.412876,1.43919 76.603626,-5.48177 116.679426,-16.70166 -11.2201,40.07572 -18.14123,79.26573 -16.70224,116.67858 35.11574,-12.98764 68.67267,-34.38 101.40423,-60.08214 4.9703,41.31886 13.57253,80.17555 29.21927,114.18986 27.47215,-25.43688 50.29162,-58.04252 70.69561,-94.31341 20.40368,36.27071 43.22086,68.87612 70.69269,94.31295 15.64691,-34.01422 24.25021,-72.86962 29.22072,-114.18847 32.73142,25.70235 66.29028,47.09432 101.40595,60.08216 1.43919,-37.41288 -5.48394,-76.60219 -16.70383,-116.67798 40.07573,11.22009 79.26755,18.14157 116.68039,16.70259 -12.98764,-35.11574 -34.37962,-68.67448 -60.08179,-101.40602 41.31887,-4.9703 80.17376,-13.57291 114.18806,-29.21964 -25.74378,-27.80363 -59.94299,-50.1033 -96.74052,-70.69487 36.79759,-20.59136 70.99798,-42.88961 96.74187,-70.69307 -34.01421,-15.64691 -72.87142,-24.25056 -114.19027,-29.22107 25.70187,-32.73099 47.09593,-66.28862 60.0836,-101.40379 -37.41288,-1.43919 -76.60363,5.48178 -116.67943,16.70166 11.2201,-40.07572 18.14123,-79.26572 16.70224,-116.67859 -35.11499,12.98738 -68.67299,34.37891 -101.40387,60.08036 -4.97034,-41.31823 -13.57491,-80.17459 -29.22143,-114.18843 z"
           sodipodi:insensitive="true" /><path
           id="path1"
           style="display:inline;fill:#97002b;fill-opacity:1;stroke:none;stroke-width:0.88863;stroke-opacity:1"
           d="m 329.9756,226.24495 c -14.72952,32.0773 -22.81467,68.71533 -27.47422,107.67231 -30.87436,-24.21018 -62.52413,-44.35672 -95.63813,-56.57866 -1.33284,35.27231 5.21705,72.21471 15.82037,109.98941 -37.78902,-10.55221 -74.74093,-17.05213 -110.01141,-15.67154 12.26657,33.09698 32.45569,64.72055 56.70721,95.5617 -38.95064,4.71227 -75.576524,12.8478 -107.633854,27.62072 23.998834,25.88376 54.753094,47.37467 88.961544,66.58773 -34.18239,19.25934 -64.906642,40.79109 -88.870402,66.7073 32.0773,14.72951 68.713622,22.815 107.670612,27.47456 -24.2102,30.87435 -44.35639,62.52581 -56.57832,95.63982 35.2723,1.33284 72.21471,-5.21703 109.98939,-15.82038 -10.55219,37.78905 -17.05245,74.73923 -15.67185,110.00972 33.09742,-12.26674 64.72182,-32.45558 95.56338,-56.70755 4.71228,38.95064 12.84781,75.57652 27.62072,107.63386 25.88376,-23.99883 47.37297,-54.75277 66.58604,-88.9612 19.25935,34.18238 40.79143,64.90834 66.70764,88.8721 14.7293,-32.07686 22.81668,-68.71459 27.47625,-107.67096 30.87374,24.2095 62.5245,44.35528 95.63779,56.57696 1.33284,-35.2723 -5.21705,-72.2147 -15.82037,-109.9894 37.78903,10.5522 74.74092,17.05212 110.0114,15.67153 -12.26674,-33.09742 -32.45693,-64.71979 -56.70891,-95.56135 38.95065,-4.71227 75.57824,-12.84815 107.63556,-27.62106 -23.99883,-25.88375 -54.75308,-47.37468 -88.96154,-66.58773 34.18239,-19.25934 64.90664,-40.79111 88.8704,-66.7073 -32.46388,-14.90702 -70.30137,-21.96593 -109.78411,-26.59854 24.60049,-31.22755 46.32261,-63.00282 58.69182,-96.51585 -35.2723,-1.33283 -72.2164,5.21738 -109.9911,15.82072 10.55194,-37.78849 17.05414,-74.74007 15.67356,-110.01006 -33.09742,12.26675 -64.72181,32.45559 -95.56338,56.70756 -4.71228,-38.95064 -12.84781,-75.57652 -27.62072,-107.63387 -25.88321,23.99834 -47.37362,54.75194 -66.58638,88.95952 -19.25913,-34.18181 -40.79315,-64.90664 -66.70899,-88.87007 z m 5.30166,26.55927 c 23.86125,22.06363 43.68824,50.35358 61.42051,81.82547 17.68958,-31.49562 37.47645,-59.81082 61.30766,-81.90658 13.60173,29.51587 21.0908,63.23718 25.42948,99.09986 28.39648,-22.32929 57.51442,-40.91654 87.98791,-52.21079 1.27112,32.47381 -4.71485,66.49435 -14.43025,101.28699 34.77995,-9.76272 68.79424,-15.79301 101.27017,-14.56582 -11.38857,30.85613 -31.38801,60.11134 -54.03818,88.8632 36.35257,4.26533 71.1892,10.76578 101.07936,24.49098 -22.06393,23.86158 -50.35167,43.68601 -81.8241,61.41849 31.49644,17.68984 59.8124,37.47729 81.90861,61.30902 -29.51582,13.60172 -63.23853,21.09283 -99.1012,25.43151 22.3293,28.39647 40.91757,57.51068 52.21181,87.98417 -32.47426,1.27114 -66.4969,-4.71224 -101.29005,-14.42786 9.76271,34.77994 15.79435,68.79218 14.56718,101.26812 -30.4881,-11.25275 -59.62969,-29.80104 -88.05578,-52.09123 -4.29015,35.86793 -11.73615,69.60199 -25.29773,99.13582 -23.86159,-22.06393 -43.68669,-50.35508 -61.41916,-81.82751 -17.68987,31.49642 -37.47561,59.81205 -61.30732,81.90828 -13.60173,-29.51585 -21.09249,-63.23684 -25.43118,-99.0995 -28.39648,22.32929 -57.51442,40.91653 -87.98791,52.21077 -1.27116,-32.47426 4.71462,-66.49384 14.43024,-101.28699 -34.77993,9.76273 -68.79424,15.79301 -101.27016,14.56583 11.25298,-30.48875 29.80176,-59.63115 52.0926,-88.0578 -35.8685,-4.29016 -69.59955,-11.73462 -99.133787,-25.29639 22.063927,-23.86159 50.351677,-43.686 81.824107,-61.41848 -31.49643,-17.68986 -59.81239,-37.4773 -81.908616,-61.30902 29.515846,-13.60173 63.238546,-21.09283 99.101196,-25.43151 -22.32887,-28.39608 -40.91771,-57.5111 -52.2118,-87.98417 32.47426,-1.27115 66.4969,4.71224 101.29005,14.42786 -9.7627,-34.77994 -15.79265,-68.79253 -14.56548,-101.26847 30.48874,11.25298 59.62945,29.80212 88.05611,52.09295 4.29014,-35.86851 11.73393,-69.60296 25.29571,-99.1372 z"
           sodipodi:insensitive="true" /><path
           id="path4"
           transform="translate(2.0999999e-4,-5.1445397e-5)"
           d="m 459.19256,304.85062 c 0,6.26212 -5.07646,11.33858 -11.33859,11.33858 -6.26212,0 -11.33858,-5.07646 -11.33858,-11.33858 0,-6.26213 5.07646,-11.33859 11.33858,-11.33859 6.26213,0 11.33859,5.07646 11.33859,11.33859 z M 356.3235,300.51113 c 2.39641,5.78545 -0.35095,12.41816 -6.1364,14.81458 -5.78545,2.39641 -12.41816,-0.35095 -14.81457,-6.1364 -2.39641,-5.78545 0.35095,-12.41816 6.1364,-14.81457 5.78545,-2.39642 12.41816,0.35094 14.81457,6.13639 z m -96.69926,35.35713 c 4.42799,4.42799 4.42799,11.60718 0,16.03517 -4.428,4.428 -11.60719,4.428 -16.03518,0 -4.42799,-4.42799 -4.42799,-11.60718 0,-16.03517 4.42799,-4.428 11.60718,-4.428 16.03518,0 z m -75.80789,69.67093 c 5.78545,2.39641 8.53281,9.02912 6.1364,14.81457 -2.39642,5.78545 -9.02913,8.53281 -14.81458,6.1364 -5.78545,-2.39642 -8.5328,-9.02913 -6.13639,-14.81458 2.39641,-5.78545 9.02912,-8.53281 14.81457,-6.13639 z m -43.37544,93.37796 c 6.26212,0 11.33858,5.07646 11.33858,11.33859 0,6.26212 -5.07646,11.33858 -11.33858,11.33858 -6.26213,0 -11.33859,-5.07646 -11.33859,-11.33858 0,-6.26213 5.07646,-11.33859 11.33859,-11.33859 z m -4.33949,102.86906 c 5.78545,-2.39641 12.41816,0.35095 14.81458,6.1364 2.39641,5.78545 -0.35095,12.41816 -6.1364,14.81457 -5.78545,2.39641 -12.41816,-0.35095 -14.81457,-6.1364 -2.39642,-5.78545 0.35094,-12.41816 6.13639,-14.81457 z m 35.35713,96.69926 c 4.42799,-4.42799 11.60718,-4.42799 16.03517,0 4.428,4.428 4.428,11.60719 0,16.03518 -4.42799,4.42799 -11.60718,4.42799 -16.03517,0 -4.428,-4.42799 -4.428,-11.60718 0,-16.03518 z m 69.67093,75.80789 c 2.39641,-5.78545 9.02912,-8.53281 14.81457,-6.1364 5.78545,2.39642 8.53281,9.02913 6.1364,14.81458 -2.39642,5.78545 -9.02913,8.5328 -14.81458,6.13639 -5.78545,-2.39641 -8.53281,-9.02912 -6.13639,-14.81457 z m 93.37796,43.37544 c 0,-6.26212 5.07646,-11.33858 11.33859,-11.33858 6.26212,0 11.33858,5.07646 11.33858,11.33858 0,6.26213 -5.07646,11.33859 -11.33858,11.33859 -6.26213,0 -11.33859,-5.07646 -11.33859,-11.33859 z m 102.86906,4.33949 c -2.39641,-5.78545 0.35095,-12.41816 6.1364,-14.81458 5.78545,-2.39641 12.41816,0.35095 14.81457,6.1364 2.39641,5.78545 -0.35095,12.41816 -6.1364,14.81457 -5.78545,2.39642 -12.41816,-0.35094 -14.81457,-6.13639 z m 96.69926,-35.35713 c -4.42799,-4.42799 -4.42799,-11.60718 0,-16.03517 4.428,-4.428 11.60719,-4.428 16.03518,0 4.42799,4.42799 4.42799,11.60718 0,16.03517 -4.42799,4.428 -11.60718,4.428 -16.03518,0 z m 75.80789,-69.67093 c -5.78545,-2.39641 -8.53281,-9.02912 -6.1364,-14.81457 2.39642,-5.78545 9.02913,-8.53281 14.81458,-6.1364 5.78545,2.39642 8.5328,9.02913 6.13639,14.81458 -2.39641,5.78545 -9.02912,8.53281 -14.81457,6.13639 z m 43.37544,-93.37796 c -6.26212,0 -11.33858,-5.07646 -11.33858,-11.33859 0,-6.26212 5.07646,-11.33858 11.33858,-11.33858 6.26213,0 11.33859,5.07646 11.33859,11.33858 0,6.26213 -5.07646,11.33859 -11.33859,11.33859 z m 4.33949,-102.86906 c -5.78545,2.39641 -12.41816,-0.35095 -14.81458,-6.1364 -2.39641,-5.78545 0.35095,-12.41816 6.1364,-14.81457 5.78545,-2.39641 12.41816,0.35095 14.81457,6.1364 2.39642,5.78545 -0.35094,12.41816 -6.13639,14.81457 z m -35.35713,-96.69926 c -4.42799,4.42799 -11.60718,4.42799 -16.03517,0 -4.428,-4.428 -4.428,-11.60719 0,-16.03518 4.42799,-4.42799 11.60718,-4.42799 16.03517,0 4.428,4.42799 4.428,11.60718 0,16.03518 z m -69.67093,-75.80789 c -2.39641,5.78545 -9.02912,8.53281 -14.81457,6.1364 -5.78545,-2.39642 -8.53281,-9.02913 -6.1364,-14.81458 2.39642,-5.78545 9.02913,-8.5328 14.81458,-6.13639 5.78545,2.39641 8.53281,9.02912 6.13639,14.81457 z"
           style="display:inline;fill:#ffffff;fill-opacity:1;stroke:none;stroke-width:7.55906"
           sodipodi:insensitive="true" /></g><path
         style="display:inline;fill:url(#radialGradient13);stroke-width:7.55906"
         d="m 396.85074,561.25971 v 0 0 h 93.67811 L 396.85037,398.34238 303.17189,561.25971 H 396.85 v 0 0 m 6.8e-4,-2.8e-4 v 0 0 L 483.39797,525.41037 334.50458,410.74358 310.30271,597.10877 396.85,561.25971 v 0 0 m 5.2e-4,-5.2e-4 v 0 0 L 463.09095,495.01876 281.65031,446.0595 330.60957,627.50014 396.85,561.25971 v 0 0 m 2.8e-4,-6.8e-4 v 0 0 L 432.69934,474.71174 246.33415,498.9136 361.00094,647.807 396.85,561.25971 v 0 0 m 0,-7.4e-4 v 0 0 -93.67811 L 233.93267,561.25934 396.85,654.93782 v -93.67811 0 0 m -2.8e-4,-6.8e-4 v 0 0 L 361.00066,474.71174 246.33387,623.60513 432.69906,647.807 396.85,561.25971 v 0 0 m -5.2e-4,-5.2e-4 v 0 0 L 330.60905,495.01876 281.64979,676.4594 463.09043,627.50014 396.85,561.25971 v 0 0 m -6.8e-4,-2.8e-4 v 0 0 L 310.30203,525.41037 334.50389,711.77556 483.39729,597.10877 396.85,561.25971 v 0 0 m -7.4e-4,0 v 0 0 h -93.67811 l 93.67848,162.91733 93.67848,-162.91733 H 396.85 v 0 0 m -6.8e-4,2.8e-4 v 0 0 L 310.30203,597.10905 459.19542,711.77584 483.39729,525.41065 396.85,561.25971 v 0 0 m -5.2e-4,5.2e-4 v 0 0 L 330.60905,627.50066 512.04969,676.45992 463.09043,495.01928 396.85,561.25971 v 0 0 m -2.8e-4,6.8e-4 v 0 0 L 361.00066,647.80768 547.36585,623.60582 432.69906,474.71242 396.85,561.25971 v 0 0 m 0,7.4e-4 v 0 0 93.67811 L 559.76733,561.26008 396.85,467.5816 v 93.67811 0 0 m 2.8e-4,6.8e-4 v 0 0 L 432.69934,647.80768 547.36613,498.91429 361.00094,474.71242 396.85,561.25971 v 0 0 m 5.2e-4,5.2e-4 v 0 0 l 66.24043,66.24043 48.95926,-181.44064 -181.44064,48.95926 66.24043,66.24043 v 0 0 m 6.8e-4,2.8e-4 v 0 0 l 86.54729,35.84906 -24.20186,-186.36519 -148.8934,114.66679 86.54729,35.84906 v 0 0"
         id="path10"
         transform="matrix(1.3854277,-7.9768681e-4,7.9768681e-4,1.3854277,-153.40447,-216.00848)"
         inkscape:label="center"
         sodipodi:insensitive="true"
         inkscape:original-d="M 396.85038,398.34236 303.17189,561.25971 H 396.85 v 0 0"
         inkscape:path-effect="#path-effect11;#path-effect12" /></g><g
       id="g7"
       transform="matrix(0.12273557,0,0,0.12273557,450.80879,491.59416)"
       style="display:inline;fill:#97002b;fill-opacity:1;stroke:#be00c5;stroke-opacity:1"
       sodipodi:insensitive="true"
       inkscape:label="text"><path
         id="text3"
         style="font-size:762.44px;font-family:'Noto Sans Devanagari';-inkscape-font-specification:'Noto Sans Devanagari';display:inline;fill:#97002b;fill-opacity:1;stroke:none;stroke-width:7.55906;stroke-dasharray:none;stroke-opacity:1"
         d="m 632.68517,-96.0742 c -14.62749,-0.736099 -29.45822,0.112013 -44.23242,2.669922 C 483.93751,-75.30918 410.28347,18.862042 409.49376,122.5469 h -0.01 v 0.19531 c -0.001,0.19128 -0.0266,0.37896 -0.0273,0.57031 h 0.0273 v 169.58789 h -58 v 54.13282 h 57.94531 v 183.74805 c -27.44784,-3.04976 -56.42037,-8.13194 -86.91797,-15.24805 -30.4976,-7.11611 -56.92806,-14.99573 -79.29297,-23.63672 17.79027,-13.72392 32.27653,-29.22584 43.45898,-46.50781 11.69075,-17.79027 17.53711,-37.61409 17.53711,-59.47071 0,-29.9893 -10.92854,-54.13308 -32.78515,-72.43164 -21.85662,-18.80685 -49.56007,-28.21094 -83.10743,-28.21094 -37.10541,0 -66.58479,9.65751 -88.441403,28.97266 -21.34832,19.31515 -32.023438,42.44327 -32.023438,69.38281 0,19.82344 5.08218,38.88504 15.248047,57.1836 10.67416,18.29856 29.482324,37.10478 56.421874,56.41992 -18.80685,10.67416 -38.12187,21.60271 -57.945312,32.78516 -19.315146,10.67416 -39.392396,21.0939 -60.232422,31.25976 l 36.595703,51.84571 c 23.889787,-13.72392 47.271331,-27.70138 70.144531,-41.9336 23.38149,-14.7405 46.00081,-29.22677 67.85742,-43.45898 19.31515,8.13269 40.91686,15.75694 64.80665,22.87305 23.88978,7.1161 50.57562,13.72274 80.05664,19.82226 L 148.6754,685.55667 185.27306,736.64065 409.42931,588.72659 V 767.1387 h 61.75781 V 347.03323 h 11.82813 v 0.20703 h 68.19922 v 422.22852 h 0.0723 v 53.71289 h -0.0371 v 5.25781 l -9.16992,3.70899 c -14.01148,5.66741 -27.43708,14.90696 -27.47656,18.90625 -0.0195,1.97335 3.13537,5.03289 7.01562,6.80078 7.60037,3.46294 9.43637,7.95313 3.25196,7.95313 -6.58461,0 -34.35942,31.77746 -41.9336,47.97461 -21.4133,45.79191 -5.4892,102.95816 36.91797,132.52346 l 9.52539,6.6426 -7.58008,3.9667 c -10.80788,5.6626 -8.1254,11.6908 9.13868,20.5157 l 14.96484,7.6504 -7.20313,4.7187 c -8.87255,5.8131 -9.08976,10.3461 -0.85546,17.8906 8.63951,7.9149 36.76265,23.3868 42.51172,23.3868 5.9598,0 37.91956,-15.4215 44.72851,-21.584 6.77104,-6.1275 6.61817,-16.9812 -0.30273,-21.3028 -5.04366,-3.1498 -4.30413,-4.0315 9.17187,-10.9199 16.4936,-8.431 19.81393,-15.1599 9.74414,-19.748 -6.61807,-3.0164 -6.40273,-3.3844 13.47071,-23.3086 25.18341,-25.247 32.46398,-42.19812 32.81054,-76.38284 0.32,-31.57121 -7.01451,-50.07857 -29.26758,-73.86718 -9.34009,-9.98458 -18.73845,-18.15625 -20.88867,-18.15625 -6.27651,0 -4.51374,-4.46464 3.14258,-7.95313 3.88033,-1.76789 7.04069,-4.82743 7.02149,-6.80078 -0.0399,-3.99929 -13.47094,-13.23884 -27.48243,-18.90625 l -9.17187,-3.70899 v -2.60937 h 0.0234 v -58.87305 h -0.0703 v -419.7168 h 78.92579 v -54.40625 h -209.1973 v 0.0664 H 471.55431 V 123.56643 l 0.26367,0.002 c 0.30748,-74.45025 53.96921,-142.834309 127.27149,-155.525391 72.00983,-12.467319 146.56118,34.7492916 158.1875,107.330079 9.56013,59.681992 -29.97316,121.369722 -89.9961,129.937502 -47.35128,6.759 -96.22071,-25.05302 -101.80859,-72.41797 -4.13,-35.007337 19.88582,-71.129195 54.4082,-73.892579 22.60844,-1.809717 46.09404,14.22911 46.40625,35.519532 L 728.64025,93.60549 C 727.73853,32.1168 670.34331,-7.5997979 614.90392,-3.162089 541.99261,2.6741749 495.53407,72.351103 503.53868,140.20119 513.53144,224.90346 595.82783,278.50414 676.09337,267.0469 772.77468,253.24644 833.69731,158.179 818.85314,65.509787 811.23067,17.92422 786.28721,-21.923565 751.83947,-50.171855 718.62202,-77.411278 676.56763,-93.8659 632.68517,-96.0742 Z m -446.6504,431.67188 c 17.28198,0 31.00601,4.06457 41.17188,12.19727 10.16587,8.13269 15.25,20.84107 15.25,38.12304 0,15.7571 -4.82875,30.49679 -14.48633,44.22071 -9.14928,13.72392 -22.11108,26.17692 -38.88476,37.35937 -23.3815,-13.21562 -39.39222,-26.68428 -48.03321,-40.4082 -8.64098,-13.72392 -12.96289,-26.68573 -12.96289,-38.88477 0,-17.79026 5.84636,-31.00549 17.53711,-39.64648 12.19904,-8.64099 25.6677,-12.96094 40.4082,-12.96094 z"
         transform="translate(-894.03295,46.110238)"
         inkscape:label="shree"
         sodipodi:insensitive="true" /><path
         id="path5"
         style="fill:#97002b;fill-opacity:1;stroke:none;stroke-width:7.55906;stroke-dasharray:none;stroke-opacity:1"
         inkscape:label="chakra"
         d="m 662.98975,393.35051 c -2.18649,24.4503 9.27697,50.56052 -23.63671,52.96679 -282.38944,20.64522 -250.83054,257.03661 -89.46682,267.62892 17.56913,1.15329 35.42438,-10.42609 45.16603,-18.9668 9.25285,-9.35055 9.25728,-8.11605 0,0 -4.11038,4.15381 -6.39129,5.91084 -10.80075,9.30467 l 19.48747,39.01723 -18.01383,6.50993 -17.73929,-37.17358 c -62.24773,37.3502 -139.26959,8.36569 -134.24024,11.09175 38.41504,59.9746 138.86207,34.3017 177.57422,16.32619 17.39271,-10.7602 18.9394,-8.79428 0,0 -15.22843,9.42123 -37.48875,13.40198 -46.88281,31.1113 -31.09867,58.62622 -18.00986,23.36201 23.10936,18.89454 25.89981,-2.81394 69.37372,14.6519 76.12305,-5.11329 l -0.67968,30.63088 H 725.0581 V 581.87588 c 46.12331,-16.29059 107.17312,7.62233 103.52735,88.20511 -7.07611,71.51399 55.64743,134.07405 53.90233,111.90039 -4.9961,-63.48306 5.5081,-87.75246 6.3633,-129.8965 1.5981,-78.75251 -57.26367,-132.04426 -116.2695,-134.10739 -60.73433,-2.12357 -127.9293,16.82491 -165.46681,87.56247 -25.62837,48.29541 -92.50458,43.81304 -102.55386,0.34772 -12.01795,-51.98026 44.77777,-83.42404 135.59876,-98.67187 97.10445,-16.30273 84.69305,-75.7093 84.89843,-113.86522 h 193.0475 v -54.40626 l -796.75221,-8e-5 V 393.3505 H 295.5526 v 130.32422 c -7.3992,-4.77937 -13.1406,-6.9414 -18.3183,-6.9414 -7.687,0 -8.4156,-0.62038 -9.6504,-8.22852 -1.9619,-12.08971 -9.6715,-21.35102 -21.5528,-25.88867 -8.9436,-3.41525 -12.0098,-3.58411 -20.709,-1.14844 -8.9782,2.51387 -12.1673,2.23833 -26.3925,-2.27148 -12.831,-4.06766 -36.3838,-6.9239 -53.2383,-6.9961 -5.6179,-0.024 -10.4931,0.26249 -13.9785,0.91602 -4.4894,0.8423 -11.1799,4.32336 -14.8653,7.73828 -5.6344,5.22154 -8.5669,6.12349 -18.4511,5.67187 -14.0149,-0.64039 -21.3296,2.90091 -65.66605,31.8125 -57.56457,37.53878 -85.13103,47.56207 -156.72071,56.9668 -21.03212,2.7631 -31.4698,8.64913 -33.51953,18.90235 l -1.33594,6.67968 -14.96875,-1.39648 c -14.03657,-1.31081 -14.96484,-1.09614 -14.96484,3.4707 0,6.1379 1.69458,6.62418 38.67773,11.05078 91.40164,10.94004 127.28998,23.35728 182.83204,63.26563 50.51535,36.29607 81.14765,46.80886 121.89255,41.82227 28.1901,-3.44998 60.0636,-18.38131 78.8633,-36.93751 6.9055,-6.8158 16.4713,-13.66818 21.2637,-15.23046 4.7925,-1.56228 11.4732,-6.11702 14.8437,-10.12305 5.3527,-6.34963 6.0309,-9.02153 5.3535,-20.8125 -0.7179,-12.45529 -0.1967,-14.13815 6.5762,-21.27344 7.3729,-7.76589 12.1634,-15.84126 14.0293,-23.52148 v 224.37695 h 62.0723 V 393.3505 Z m 3.00783,247.36525 V 673.6591 L 639.6421,657.18841 Z M 149.3925,481.57511 c 15.0728,0.009 53.2237,8.9485 54.7109,12.82422 0.6297,1.64195 -2.0154,7.97283 -5.8789,14.06445 -8.578,13.5258 -12.0039,28.51227 -12.0039,52.54297 0,19.47216 6.755,50.8107 12.8183,59.4668 4.6227,6.59016 4.6334,10.20479 0.025,6.38086 -5.1776,-4.29731 -6.4712,-1.57617 -3.8183,8.03125 2.8846,10.44629 0.4567,10.85091 -5.4199,0.90234 -4.6544,-7.87879 -8.0826,-5.54809 -3.75,2.54883 3.0904,5.77434 3.2588,14.34766 0.2832,14.34766 -1.2161,0 -4.9372,-4.48182 -8.2715,-9.96094 l -6.0625,-9.96289 1.414,12.89258 1.4121,12.89258 -7.1386,-8.20508 c -3.927,-4.51225 -7.1701,-8.99402 -7.2051,-9.96094 -0.035,-0.96683 -1.2555,-1.75976 -2.7109,-1.75976 -1.8138,0 -2.1634,3.6291 -1.1133,11.54687 0.8418,6.35037 0.713,12.05028 -0.2871,12.66797 -0.9986,0.61781 -4.4524,-4.18779 -7.6739,-10.68164 l -5.8593,-11.80664 -1.1719,13.78515 -1.1719,13.78907 -4.6894,-12.89258 -4.6875,-12.89063 -0.709,13.66602 c -0.8092,15.5925 -3.724,15.38799 -11.0059,-0.76172 -4.2078,-9.32959 -9.5415,-13.13336 -7.414,-5.28711 5.4104,19.95341 2.5178,23.33869 -5.004,5.85938 l -4.789,-11.13282 -0.1895,12.30469 c -0.1049,6.7683 -1.0424,12.30664 -2.0879,12.30664 -1.0451,0 -3.2505,-5.27459 -4.9023,-11.7207 -1.6522,-6.44594 -3.9281,-11.71875 -5.0586,-11.71875 -1.1262,0 -1.5954,1.3182 -1.0352,2.92969 0.56,1.61148 0.1756,6.62253 -0.8515,11.13476 l -1.8672,8.20313 -1.7715,-9.94727 c -2.1044,-11.81033 -7.2561,-16.89959 -5.5859,-5.51758 1.4703,10.01753 -1.9568,11.64192 -4.2305,2.00586 l -1.8047,-7.63672 -1.3418,7.03125 c -1.5499,8.13009 -5.6167,8.53698 -6.7656,0.67774 -1.2642,-8.64847 -5.0368,-10.68126 -5.3848,-2.90235 -0.1356,3.02823 -0.2333,4.67619 -0.4297,4.83399 v 0.006 0.006 c -0.022,2.6e-4 -0.021,-3e-5 -0.021,0 v -0.006 -0.006 c -0.2479,-0.16651 -0.6517,-2.16042 -1.4297,-6.125 l -1.6114,-8.20313 -2.55855,8.20313 -2.56055,8.20508 -0.48047,-8.20508 c -0.2658,-4.51224 -0.96864,-6.34617 -1.56054,-4.07422 -0.5936,2.27182 -2.17202,3.45833 -3.50782,2.63281 -1.3358,-0.82565 -3.39773,-0.0516 -4.58203,1.72461 -1.4296,2.1458 -1.64919,1.06898 -0.65429,-3.21289 0.895,-3.85628 0.51764,-6.44531 -0.93946,-6.44531 -1.3396,0 -2.9,2.37272 -3.4707,5.27344 l -1.03906,5.27343 -1.74414,-5.27343 c -1.68498,-5.09771 -3.80087,-6.25251 -9.98633,-5.44922 -1.61162,0.20925 -2.943,-1.51347 -2.9668,-3.82617 -0.0266,-3.61227 -0.38566,-3.70821 -2.52148,-0.6875 -1.8812,2.66006 -2.77828,2.8 -3.68164,0.57226 -0.65671,-1.61918 -2.27458,-2.27684 -3.59766,-1.45898 -1.32325,0.81777 -3.19664,0.2103 -4.16211,-1.35157 -4.5850499,-7.41939 -45.05284,-17.48587 -104.37305,-25.96679 l -30.4707,-4.35938 41.01953,0.71875 c 37.9364,0.66515 43.22251,1.31272 70.32031,8.59375 26.74636,7.18642 32.16082,7.86751 62.11719,7.82031 39.65495,-0.0629 52.46185,-4.0145 72.55665,-22.3789 31.0667,-28.39291 38.4307,-77.40176 15.1309,-100.70117 -5.0375,-5.03766 -9.1602,-9.58499 -9.1602,-10.10352 0,-2.41502 15.9272,-6.08257 26.4141,-6.08594 z m 83.7461,9.57422 c 2.0122,-0.0655 3.8026,0.69893 6.6152,2.25195 3.4586,1.90987 8.1447,7.25621 10.416,11.88086 4.0449,8.238 4.0076,8.72257 -1.7598,24.04493 -6.7606,17.96221 -7.967,47.80628 -2.5449,63 3.1744,8.89534 2.1889,11.03766 -2.789,6.06054 -2.0739,-2.07428 -2.3982,-0.52886 -1.3575,6.44727 1.3133,8.81004 1.2103,8.98846 -2.5429,4.48633 -3.7769,-4.53192 -3.8545,-4.43459 -2.4356,2.92968 0.8084,4.18998 0.9617,7.61719 0.3399,7.61719 -0.62,0 -3.4284,-3.42721 -6.2364,-7.61719 -4.8988,-7.3107 -5.0488,-7.36954 -3.7539,-1.39257 0.7423,3.42549 2.0454,8.17298 2.8946,10.54882 1.1076,3.09963 -0.6478,2.33494 -6.2129,-2.71093 -5.5647,-5.0458 -7.3202,-5.8087 -6.2129,-2.70899 0.8494,2.37586 2.1741,7.12128 2.9472,10.54688 1.2776,5.65921 0.8594,5.44894 -4.6093,-2.31055 -3.311,-4.69701 -8.2283,-14.19168 -10.9278,-21.09766 -3.1384,-8.03129 -5.3865,-20.58273 -6.2402,-34.82617 -2.2035,-36.73643 8.0779,-65.65734 26.457,-74.42187 3.7022,-1.76532 5.9402,-2.66282 7.9532,-2.72852 z m -130.0997,5.11328 c 13.7389,0.56887 23.1188,7.95523 27.9239,22.05469 7.3371,21.53354 2.9243,47.35824 -11.043,64.63281 -6.0447,7.47564 -6.2041,4.26013 -0.3613,-7.37109 4.3899,-8.7406 5.7636,-15.18266 5.7636,-27.0332 0,-26.26027 -10.2408,-41.18946 -28.2539,-41.18946 -13.2111,0 -16.4938,1.86663 -14.8418,8.44727 1.4019,5.58669 -2.1,7.89918 -4.9589,3.27344 -2.3529,-3.80636 -5.2189,-2.69477 -6.5918,2.55468 -0.9695,3.70853 -2.4606,4.52157 -6.1348,3.35547 -3.8395,-1.21857 -4.8535,-0.52348 -4.8535,3.31055 0,5.09584 -3.3807,6.51107 -5.88283,2.46289 -2.4082,-3.89722 -5.83789,-0.13797 -5.83789,6.40039 0,5.74943 -0.23387,5.86753 -4.28907,2.19727 -4.7446,-4.29341 -7.43164,-3.01314 -7.43164,3.54687 0,4.8628 -2.51029,5.53777 -6.3457,1.70313 -1.89803,-1.89826 -3.30792,-1.26848 -5.24023,2.34375 -1.45408,2.7168 -4.89646,4.93945 -7.6504,4.93945 -2.75407,0 -6.6744,1.44154 -8.70898,3.20508 -6.25733,5.42109 -72.48348,24.92531 -100.97461,29.73633 -18.8825,3.18838 -27.95208,5.78904 -30.28516,8.68359 -2.409,2.99042 -5.81054,3.89301 -12.30664,3.27344 -4.93633,-0.47091 -8.97656,-1.63203 -8.97656,-2.58594 0,-4.88353 10.16479,-9.54803 25.84766,-11.85742 61.7109,-9.08769 96.53994,-21.1782 141.74805,-49.20118 44.7939,-27.76511 53.5758,-32.55325 64.5,-35.17382 5.5396,-1.3291 10.6057,-1.8985 15.1855,-1.70899 z m 163.1622,30.27149 c 0.4298,-0.0183 0.8687,-0.0183 1.3183,0 6.755,0.28774 15.669,4.80479 20.5703,11.80273 4.1134,5.87198 4.8804,17.21192 1.3145,19.41602 -1.2896,0.79671 -2.3457,3.55638 -2.3457,6.13476 0,2.5784 -1.055,4.03711 -2.3438,3.24024 -1.2893,-0.79691 -2.3437,0.32446 -2.3437,2.49218 0,3.29331 -0.597,3.44587 -3.6309,0.92774 -3.1536,-2.6174 -3.4834,-2.19336 -2.5,3.22851 1.1418,6.29549 -1.8444,8.7477 -4.0371,3.31446 -0.6508,-1.6115 -1.2701,-0.58887 -1.3691,2.27148 -0.132,3.69955 -1.2322,4.79515 -3.8184,3.80274 -2.9543,-1.1334 -3.3506,-0.13084 -2.1133,5.34765 l 1.5235,6.74414 -5.8828,-7.03125 c -3.7878,-4.52627 -6.422,-11.29207 -7.3887,-18.98242 -1.429,-11.35531 1.5042,-29.81345 6.1992,-39.0332 1.2102,-2.37844 3.7257,-3.53829 6.8477,-3.67578 z"
         sodipodi:nodetypes="csscccccccccsscccccsssssscccccccsscsssccscscccsscssscccccccccccccccsccsccscccccssccccccccscscccscsssccccccssccccccccccccsccscccsccssccccsccsscssccsccccscscscccccssccscsscccsscscsccscscssccscccccsssssccscccccc"
         sodipodi:insensitive="true" /><path
         d="m -1070.165,338.94425 v 54.40626 h -284.2951 c 2.1865,24.4503 -9.2769,50.56052 23.6368,52.96679 282.3897,20.64522 250.8306,257.03661 89.4669,267.62892 -17.5691,1.15329 -35.4244,-10.42609 -45.1661,-18.9668 -9.2528,-9.35055 -9.2572,-8.11605 0,0 4.1104,4.15381 6.3913,5.91084 10.8008,9.30467 l -19.4875,39.01723 18.0139,6.50993 17.7393,-37.17358 c 62.2476,37.3502 139.2694,8.36569 134.2401,11.09175 -38.4153,59.9746 -138.8619,34.3017 -177.5742,16.32619 -17.3927,-10.7602 -18.9394,-8.79428 0,0 15.2285,9.42123 37.4889,13.40198 46.8829,31.1113 31.0986,58.62622 18.0098,23.36201 -23.1094,18.89454 -25.8998,-2.81394 -69.3738,14.6519 -76.1231,-5.11329 l 0.6796,30.63088 h -62.0683 V 581.87588 c -46.1232,-16.29059 -107.173,7.62233 -103.5273,88.20511 7.0761,71.51399 -55.6475,134.07405 -53.9024,111.90039 4.9962,-63.48306 -5.508,-87.75246 -6.3633,-129.8965 -1.5981,-78.75251 57.2638,-132.04426 116.2696,-134.10739 60.7343,-2.12357 127.9292,16.82491 165.4668,87.56247 25.6285,48.29541 92.5045,43.81304 102.5538,0.34772 12.0177,-51.98026 -44.7777,-83.42404 -135.5987,-98.67187 -97.1045,-16.30273 -84.6931,-75.7093 -84.8985,-113.86522 h -249.0467 v -54.40626 z m -287.3029,301.77151 v 32.94334 l 26.3555,-16.47069 z"
         style="fill:#97002b;fill-opacity:1;stroke:none;stroke-width:7.55906;stroke-dasharray:none;stroke-opacity:1"
         id="path6-5"
         sodipodi:nodetypes="cccsscccccccccsscccccsssssscccccccc"
         inkscape:label="haathi"
         sodipodi:insensitive="true" /></g></g></svg>
