<?xml version="1.0" encoding="UTF-8" standalone="no"?>
<!-- Created with Inkscape (http://www.inkscape.org/) -->

<svg
   width="210mm"
   height="297mm"
   viewBox="0 0 793.70081 1122.5197"
   version="1.1"
   id="svg1"
   inkscape:version="1.4.2 (ebf0e940d0, 2025-05-08)"
   sodipodi:docname="shreechakra.svg"
   xml:space="preserve"
   xmlns:inkscape="http://www.inkscape.org/namespaces/inkscape"
   xmlns:sodipodi="http://sodipodi.sourceforge.net/DTD/sodipodi-0.dtd"
   xmlns="http://www.w3.org/2000/svg"
   xmlns:svg="http://www.w3.org/2000/svg"><sodipodi:namedview
     id="namedview1"
     pagecolor="#505050"
     bordercolor="#eeeeee"
     borderopacity="1"
     inkscape:showpageshadow="0"
     inkscape:pageopacity="0"
     inkscape:pagecheckerboard="0"
     inkscape:deskcolor="#505050"
     inkscape:document-units="mm"
     inkscape:zoom="0.72070006"
     inkscape:cx="761.75934"
     inkscape:cy="533.50904"
     inkscape:window-width="1920"
     inkscape:window-height="1012"
     inkscape:window-x="0"
     inkscape:window-y="32"
     inkscape:window-maximized="1"
     inkscape:current-layer="layer1"
     showgrid="false"><sodipodi:guide
       position="396.85,0"
       orientation="1122.52,0"
       id="guide1"
       inkscape:locked="false" /><sodipodi:guide
       position="0,561.26"
       orientation="0,793.701"
       id="guide2"
       inkscape:locked="false" /></sodipodi:namedview><defs
     id="defs1" /><g
     inkscape:label="Layer 1"
     inkscape:groupmode="layer"
     id="layer1"><g
       id="g3"
       transform="translate(-894.03295,46.110242)"
       sodipodi:insensitive="true"><text
         xml:space="preserve"
         style="font-style:normal;font-variant:normal;font-weight:normal;font-stretch:normal;font-size:762.44px;font-family:'Noto Sans Devanagari';-inkscape-font-specification:'Noto Sans Devanagari';text-align:start;writing-mode:lr-tb;direction:ltr;text-anchor:start;display:inline;fill:#000000;fill-opacity:1;stroke-width:35.7955"
         x="0"
         y="767.13788"
         id="text3"
         sodipodi:insensitive="true"><tspan
           sodipodi:role="line"
           id="tspan2"
           x="0"
           y="767.13788"
           style="fill:#000000;stroke-width:35.7955">श्र</tspan></text><path
         id="path3"
         style="font-style:normal;font-variant:normal;font-weight:normal;font-stretch:normal;font-size:629.906px;font-family:'Noto Sans Devanagari';-inkscape-font-specification:'Noto Sans Devanagari';text-align:start;writing-mode:lr-tb;direction:ltr;text-anchor:start;display:inline;fill:#000000;stroke-width:35.9768"
         d="M 409.48438,122.5474 V 294.05131 H 471.5547 V 122.5474 Z"
         sodipodi:insensitive="true" /><path
         sodipodi:type="spiral"
         style="display:inline;fill:none;fill-opacity:1;fill-rule:evenodd;stroke:#000000;stroke-width:57.5447;stroke-dasharray:none"
         id="path4"
         sodipodi:cx="606.34375"
         sodipodi:cy="36.302135"
         sodipodi:expansion="1"
         sodipodi:revolution="2.1199999"
         sodipodi:radius="183.16051"
         sodipodi:argument="-12.527378"
         sodipodi:t0="0.30628365"
         d="m 574.96525,-10.200504 c 25.6659,-28.288127 70.67041,-22.922703 95.78546,3.0428742 C 705.32186,28.584274 697.45485,86.704674 661.88478,118.61342 616.21341,159.58373 544.75391,149.151 506.12814,103.92444 458.69848,48.389485 471.72791,-36.516132 526.64018,-81.817804 c 65.36359,-53.923826 163.77505,-38.280736 215.72783,26.335104 52.2478,64.9827562 46.66926,160.27562 -7.49511,222.27633"
         transform="matrix(-0.81319175,-0.71635455,-0.71635455,0.81319175,1157.7135,514.23576)"
         sodipodi:insensitive="true" /><path
         id="text2"
         style="font-style:normal;font-variant:normal;font-weight:normal;font-stretch:normal;font-size:629.906px;font-family:'Noto Sans Devanagari';-inkscape-font-specification:'Noto Sans Devanagari';text-align:start;writing-mode:lr-tb;direction:ltr;text-anchor:start;display:inline;fill:#000000;stroke-width:35.9768"
         d="m 483.01607,292.83402 v 54.40614 h 68.1989 v 422.22856 h 62.07124 V 347.24016 h 78.92671 v -54.40614 z"
         sodipodi:insensitive="true" /><path
         id="path2"
         style="font-style:normal;font-variant:normal;font-weight:normal;font-stretch:normal;font-size:629.906px;font-family:'Noto Sans Devanagari';-inkscape-font-specification:'Noto Sans Devanagari';text-align:start;writing-mode:lr-tb;direction:ltr;text-anchor:start;display:inline;fill:#000000;stroke-width:21.0789"
         d="m 551.28714,766.95687 v 58.8737 h 62.07032 v -58.8737 z"
         sodipodi:insensitive="true" /><path
         id="rect4"
         style="display:inline;fill:#000000;fill-opacity:1;stroke-width:175.985;stroke-dasharray:none"
         d="m 551.2503,823.18112 v 5.2582 l -9.17151,3.70928 c -14.01148,5.66741 -27.43653,14.90609 -27.47601,18.90538 -0.0195,1.97335 3.13623,5.03347 7.01648,6.80136 7.60037,3.46294 9.43633,7.95341 3.25192,7.95341 -6.58461,0 -34.35911,31.77702 -41.93329,47.97417 -21.4133,45.79191 -5.48956,102.95868 36.91761,132.52398 l 9.52431,6.6426 -7.57866,3.9675 c -10.80788,5.6626 -8.12564,11.6904 9.13844,20.5153 l 14.96433,7.6499 -7.20385,4.7187 c -8.87255,5.8131 -9.08862,10.3463 -0.85432,17.8908 8.63951,7.9149 36.76286,23.386 42.51193,23.386 5.9598,0 37.91877,-15.4218 44.72772,-21.5843 6.77104,-6.1275 6.61786,-16.9804 -0.30304,-21.302 -5.04366,-3.1498 -4.30458,-4.0308 9.17142,-10.9192 16.4936,-8.431 19.81458,-15.1599 9.74479,-19.748 -6.61807,-3.0164 -6.4027,-3.3858 13.47074,-23.31 25.18341,-25.247 32.46473,-42.19674 32.81129,-76.38146 0.32,-31.57121 -7.01426,-50.07961 -29.26733,-73.86822 -9.34009,-9.98458 -18.73925,-18.15577 -20.88947,-18.15577 -6.27651,0 -4.51464,-4.46492 3.14168,-7.95341 3.88033,-1.76789 7.04117,-4.82801 7.02197,-6.80136 -0.0399,-3.99929 -13.47001,-13.23797 -27.4815,-18.90538 l -9.17153,-3.70928 v -5.2582 z"
         sodipodi:insensitive="true" /></g><g
       id="g1"
       transform="translate(-874)"
       sodipodi:insensitive="true"><path
         id="path1"
         style="font-style:normal;font-variant:normal;font-weight:normal;font-stretch:normal;font-size:629.906px;font-family:'Noto Sans Devanagari';-inkscape-font-specification:'Noto Sans Devanagari';text-align:start;writing-mode:lr-tb;direction:ltr;text-anchor:start;display:inline;fill:#000000;stroke-width:35.9768"
         d="m 1171.6536,338.94426 v 54.40614 h 68.199 v 422.22856 h 62.071 V 393.3504 h 78.927 v -54.40614 z"
         sodipodi:insensitive="true" /><path
         id="rect2"
         style="fill:#000000;fill-opacity:1;stroke-width:165.985"
         d="m 1054.616,420.42217 c 19.1393,0.0824 45.8843,3.32456 60.4536,7.94339 16.1531,5.12091 19.7742,5.43292 29.9693,2.57847 9.8779,-2.76575 13.3587,-2.5733 23.5129,1.30477 13.4918,5.15253 22.2468,15.66969 24.4745,29.3976 1.4019,8.63915 2.2296,9.34167 10.9581,9.34167 6.5172,0 13.8236,3.0196 23.6066,9.75763 l 14.1663,9.75761 v 20.85127 c 0,18.30397 -0.5878,20.85124 -4.7932,20.85124 -7.2386,0 -11.1768,5.39484 -11.1768,15.30432 0,10.98017 -5.9382,23.1666 -16.932,34.74685 -7.6906,8.10212 -8.2837,10.01451 -7.4694,24.15752 0.7703,13.3887 0,16.42231 -6.0772,23.63245 -3.8277,4.54885 -11.4122,9.71989 -16.8539,11.49388 -5.4423,1.77401 -16.3056,9.55599 -24.1468,17.29545 -21.3476,21.07066 -57.5399,38.02406 -89.5497,41.94156 -46.2659,5.6623 -81.0479,-6.274 -138.406,-47.48835 -63.0681,-45.31616 -103.8205,-59.4157 -207.6075,-71.83823 -41.9946,-5.02642 -43.9177,-5.57967 -43.9177,-12.54922 0,-5.1857 1.0549,-5.42891 16.9935,-3.94046 l 16.9953,1.58553 1.5177,-7.58461 c 2.3275,-11.64255 14.1801,-18.32718 38.0622,-21.46461 81.2904,-10.67918 112.5918,-22.05967 177.9565,-64.68513 50.3426,-32.82932 58.6475,-36.85168 74.5615,-36.12443 11.2237,0.5128 14.5536,-0.51192 20.9516,-6.441 4.1842,-3.87755 11.7815,-7.8291 16.8791,-8.78553 3.957,-0.74211 9.4919,-1.06685 15.8715,-1.03964 z m 4.2212,10.64138 c -11.9078,0 -30.011,4.17054 -30.011,6.91402 0,0.58884 4.6817,5.75279 10.4021,11.47305 26.457,26.45658 18.0951,82.10627 -17.1805,114.34654 -22.818,20.85293 -37.3602,25.33888 -82.3873,25.41026 -34.0142,0.0535 -40.1636,-0.71883 -70.5342,-8.87905 -30.7697,-8.2677 -36.7715,-9.00238 -79.8485,-9.75763 l -46.5789,-0.81611 34.6011,4.94898 c 67.3583,9.63012 113.3091,21.0613 118.5155,29.48598 1.0963,1.77346 3.2239,2.46213 4.7265,1.53354 1.5024,-0.92861 3.34,-0.18029 4.0857,1.65831 1.0258,2.52963 2.0436,2.37069 4.1797,-0.6498 2.4252,-3.43004 2.8341,-3.32213 2.8643,0.7797 0.027,2.626 1.5382,4.58352 3.3682,4.3459 7.0236,-0.91209 9.4247,0.3978 11.3379,6.1863 l 1.9806,5.98866 1.1799,-5.98866 c 0.648,-3.29382 2.4195,-5.98873 3.9404,-5.98873 1.6546,0 2.0827,2.94066 1.0665,7.31952 -1.1298,4.86211 -0.8805,6.08592 0.7429,3.64938 1.3445,-2.01699 3.687,-2.89731 5.2037,-1.95987 1.5166,0.93748 3.3088,-0.40941 3.9828,-2.98911 0.6721,-2.57979 1.4704,-0.49697 1.7722,4.62663 l 0.5459,9.31576 2.9062,-9.31576 2.9063,-9.31572 1.8295,9.31572 c 0.8834,4.50175 1.3409,6.7665 1.6224,6.95563 0,6.2e-4 0,0.006 0,0.006 v 0 0.005 0 0 c 0,-4e-5 0,2.7e-4 0.025,0 v 0 -0.005 0 -0.006 c 0.2231,-0.17923 0.3344,-2.05104 0.4884,-5.48962 0.395,-8.83296 4.6785,-6.52449 6.114,3.29587 1.3046,8.92423 5.9231,8.46234 7.683,-0.76942 l 1.5237,-7.98491 2.0481,8.67111 c 2.5818,10.94181 6.4725,9.09811 4.8032,-2.27692 -1.8965,-12.92424 3.9531,-7.14647 6.3423,6.26419 l 2.0122,11.29635 2.1207,-9.31572 c 1.1663,-5.12365 1.6025,-10.81293 0.9666,-12.64279 -0.6361,-1.82988 -0.105,-3.32705 1.1744,-3.32705 1.2837,0 3.8686,5.98874 5.7446,13.30821 1.8756,7.31953 4.3809,13.30819 5.5677,13.30819 1.1873,0 2.252,-6.28812 2.3706,-13.97363 l 0.2151,-13.97355 5.4378,12.64276 c 8.5413,19.84783 11.826,16.00305 5.6827,-6.6541 -2.4156,-8.90948 3.6389,-4.58952 8.4167,6.00426 8.2689,18.33811 11.5782,18.56836 12.4975,0.86299 l 0.8058,-15.5176 5.3225,14.63899 5.3241,14.63901 1.3303,-15.65794 1.3311,-15.65265 6.6542,13.40694 c 3.6579,7.37372 7.5777,12.82961 8.7124,12.12811 1.1358,-0.70145 1.2842,-7.17339 0.3278,-14.38428 -1.1928,-8.99064 -0.7962,-13.11063 1.2634,-13.11063 1.6523,0 3.0377,0.89834 3.0774,1.9962 0.039,1.09791 3.7232,6.18836 8.1824,11.31197 l 8.1048,9.31576 -1.6014,-14.63904 -1.6064,-14.63899 6.8828,11.31199 c 3.786,6.22158 8.0128,11.31194 9.3943,11.31194 3.3779,0 3.1862,-9.73527 -0.3226,-16.29212 -4.9199,-9.1941 -1.0266,-11.84202 4.2579,-2.89555 6.6735,11.29668 9.4305,10.83771 6.1549,-1.02417 -3.012,-10.9092 -1.5433,-13.99772 4.3358,-9.11817 5.2323,4.34214 5.2204,0.23644 -0.025,-7.24673 -6.8849,-9.82905 -14.5559,-45.41278 -14.5559,-67.52349 0,-27.28704 3.8898,-44.30466 13.6301,-59.66329 4.3869,-6.91709 7.3902,-14.10537 6.6745,-15.96977 -1.689,-4.40317 -45.0598,-14.56623 -62.1577,-14.56623 z m 95.0758,10.87528 c -2.2858,0.0746 -4.8265,1.09377 -9.03,3.09831 -20.8699,9.95219 -32.5438,42.79249 -30.042,84.50695 0.9698,16.17343 3.5214,30.4255 7.0851,39.54513 3.065,7.84173 8.6502,18.62137 12.4092,23.95475 6.2106,8.81106 6.6857,9.05133 5.2346,2.62523 -0.8778,-3.88977 -2.384,-9.27957 -3.3477,-11.97737 -1.2576,-3.51972 0.7356,-2.65212 7.0543,3.07746 6.3189,5.72961 8.3126,6.59724 7.0545,3.07755 -0.9637,-2.69779 -2.4426,-8.08764 -3.2857,-11.97734 -1.47,-6.78689 -1.2999,-6.72095 4.263,1.58033 3.1888,4.75769 6.376,8.65035 7.0804,8.65035 0.7053,0 0.5327,-3.89266 -0.3847,-8.65035 -1.6115,-8.36219 -1.5236,-8.47304 2.766,-3.32699 4.2613,5.11216 4.3773,4.9093 2.8855,-5.09459 -1.1817,-7.92145 -0.8119,-9.67483 1.5435,-7.31952 5.6522,5.65146 6.7704,3.21791 3.1658,-6.88282 -6.1571,-17.25246 -4.7867,-51.14058 2.8908,-71.53671 6.5484,-17.39863 6.589,-17.94818 1.9963,-27.30254 -2.5788,-5.25122 -7.9002,-11.32149 -11.8269,-13.49016 -3.1938,-1.76355 -5.2269,-2.63211 -7.5117,-2.55767 z m -147.7276,5.80677 c -5.2005,-0.2152 -10.9534,0.42986 -17.2436,1.93904 -12.4037,2.97559 -22.374,8.41258 -73.236,39.94012 -51.3341,31.82016 -90.8835,45.54928 -160.9565,55.86841 -17.808,2.62237 -29.3512,7.91887 -29.3512,13.46412 0,1.08322 4.5891,2.40247 10.1943,2.93718 7.3764,0.70347 11.2377,-0.32133 13.9732,-3.71694 2.6492,-3.28679 12.948,-6.24105 34.3892,-9.86154 32.3518,-5.46291 107.553,-27.60856 114.6582,-33.76434 2.3103,-2.00242 6.7605,-3.63904 9.8877,-3.63904 3.1272,0 7.0357,-2.52417 8.6868,-5.60918 2.1942,-4.10179 3.7963,-4.81705 5.9515,-2.66158 4.355,4.35427 7.2059,3.58803 7.2059,-1.93385 0,-7.44882 3.0501,-8.90407 8.4373,-4.02886 4.6043,4.16757 4.8702,4.03326 4.8702,-2.49527 0,-7.42437 3.893,-11.69281 6.6276,-7.26753 2.8412,4.59668 6.6812,2.98955 6.6812,-2.79679 0,-4.35359 1.1505,-5.14217 5.5102,-3.75854 4.172,1.3241 5.865,0.40056 6.9659,-3.81049 1.5589,-5.96073 4.8142,-7.22299 7.4859,-2.90076 3.2461,5.25246 7.2217,2.6268 5.6301,-3.71691 -1.8756,-7.47234 1.852,-9.5913 16.853,-9.5913 20.4537,0 32.082,16.95238 32.082,46.77103 0,13.45637 -1.5606,20.77212 -6.5454,30.69712 -6.634,13.20732 -6.4531,16.85825 0.4107,8.36961 15.8599,-19.61544 20.8699,-48.94109 12.5388,-73.39253 -5.4558,-16.01001 -16.1065,-24.39523 -31.7073,-25.04118 z m 186.7678,34.3725 c -0.5109,-0.021 -1.0093,-0.021 -1.4971,0 -3.5445,0.15615 -6.4014,1.47366 -7.7766,4.17442 -5.3307,10.46903 -8.6606,31.42859 -7.0386,44.32255 1.098,8.73245 4.089,16.41345 8.3904,21.55299 l 6.6798,7.98494 -1.731,-7.65747 c -1.4043,-6.22092 -0.9527,-7.35884 2.4018,-6.07182 2.9367,1.12693 4.1854,-0.1191 4.3353,-4.31997 0.1125,-3.24791 0.8157,-4.40828 1.5544,-2.57844 2.4893,6.1696 5.8818,3.38491 4.5848,-3.76373 -1.1162,-6.15648 -0.7422,-6.63708 2.8383,-3.66498 3.4456,2.85932 4.1229,2.68419 4.1229,-1.05532 0,-2.46144 1.1979,-3.73281 2.6617,-2.82791 1.4635,0.90476 2.6613,-0.75286 2.6613,-3.68064 0,-2.92775 1.1976,-6.06119 2.6622,-6.9659 4.0489,-2.50271 3.1777,-15.37941 -1.4922,-22.04696 -5.5657,-7.94629 -15.6879,-13.07502 -23.3574,-13.40176 z"
         sodipodi:insensitive="true" /></g><text
       xml:space="preserve"
       style="font-size:766.294px;font-family:'Noto Sans Devanagari';-inkscape-font-specification:'Noto Sans Devanagari';text-align:start;writing-mode:lr-tb;direction:ltr;text-anchor:start;fill:#000000;stroke-width:2239.92"
       x="526.85059"
       y="815.57898"
       id="text1"><tspan
         sodipodi:role="line"
         id="tspan1"
         x="526.85059"
         y="815.57898"
         style="stroke-width:2239.92">क</tspan></text></g></svg>
